#VRML V2.0 utf8
# 3D model generated by easyeda2kicad.py (https://github.com/uPesy/easyeda2kicad.py)

Shape{
    appearance Appearance {
        material  Material 	{
            diffuseColor 0.2196078431372549 0.6862745098039216 0.0
            specularColor 0.10980392156862745 0.3411764705882353 0.0
            ambientIntensity 0.4685
            transparency 0.0
            shininess 0.5
        }
    }
    geometry IndexedFaceSet {
        ccw TRUE
        solid FALSE
        coord DEF co Coordinate {
            point [
                -0.1128 0.1575 0.0039, -0.2109 0.1575 0.0039, -0.2109 0.4724 0.0039, -0.8366 -0.4724 0.0039, -0.9449 -0.4724 0.0039, -0.9449 -0.4429 0.0039, -0.0984 -0.2165 0.0039, -0.1128 -0.0541 0.0039, -0.0204 -0.2165 0.0039, -0.0204 -0.0541 0.0039, 0.0516 -0.2165 0.0039, 0.0516 -0.0541 0.0039, -0.1128 -0.4429 0.0039, -0.0984 -0.4134 0.0039, -0.0204 -0.4429 0.0039, -0.0204 -0.4134 0.0039, 0.0516 -0.4429 0.0039, 0.0516 -0.4134 0.0039, 0.1164 -0.4429 0.0039, 0.0984 -0.4134 0.0039, 0.4724 0.0723 0.0039, 0.4724 0.1575 0.0039, 0.5315 0.0984 0.0039, 0.7283 0.0723 0.0039, 0.7283 0.0984 0.0039, 0.9449 0.1575 0.0039, 0.9449 0.0723 0.0039, 0.9449 0.0455 0.0039, 0.7283 0.0455 0.0039, 0.9449 -0.0541 0.0039, 0.7598 -0.2165 0.0039, 0.5315 -0.0984 0.0039, 0.7283 -0.0984 0.0039, 0.4724 -0.4429 0.0039, 0.4724 -0.0541 0.0039, 0.5315 -0.2165 0.0039, 0.5315 -0.4134 0.0039, 0.7283 -0.4134 0.0039, 0.9449 -0.4429 0.0039, 0.7283 -0.315 0.0039, 0.7598 -0.315 0.0039, 0.7283 -0.0541 0.0039, 0.5315 0.0723 0.0039, 0.5315 0.0455 0.0039, 0.4724 0.0455 0.0039, 0.5315 -0.0541 0.0039, -0.4724 -0.0541 0.0039, -0.4724 -0.4429 0.0039, -0.5315 -0.0984 0.0039, -0.5315 -0.2165 0.0039, -0.7283 -0.0984 0.0039, -0.8366 -0.0541 0.0039, -0.7283 -0.2165 0.0039, -0.8366 -0.4429 0.0039, -0.7283 -0.4134 0.0039, -0.5315 -0.4134 0.0039, -0.7283 -0.0541 0.0039, -0.8366 0.0455 0.0039, -0.7283 0.0455 0.0039, -0.8366 0.0723 0.0039, -0.7283 0.0723 0.0039, -0.7283 0.0984 0.0039, -0.8366 0.1575 0.0039, -0.5315 0.0984 0.0039, -0.4724 0.1575 0.0039, -0.5315 0.0723 0.0039, 0.0734 -0.0425 0.0039, 0.063 -0.0386 0.0039, 0.094 0.0342 0.0039, 0.0612 -0.0484 0.0039, 0.0612 -0.0376 0.0039, 0.0516 0.0455 0.0039, 0.0717 -0.0527 0.0039, 0.0817 -0.0541 0.0039, 0.0856 -0.0547 0.0039, 0.0984 -0.2165 0.0039, 0.0757 0.0455 0.0039, 0.0726 0.0453 0.0039, 0.0612 0.0422 0.0039, 0.0612 0.029 0.0039, 0.0723 0.0337 0.0039, 0.0843 0.0353 0.0039, 0.1013 0.0315 0.0039, 0.1135 -0.0313 0.0039, 0.1089 -0.0362 0.0039, 0.1028 -0.0403 0.0039, 0.0957 -0.0429 0.0039, 0.0865 -0.0439 0.0039, 0.1181 0.0128 0.0039, 0.1208 0.0023 0.0039, 0.1164 0.016 0.0039, 0.1212 -0.0054 0.0039, 0.1202 -0.016 0.0039, 0.1081 0.027 0.0039, 0.1141 0.0204 0.0039, 0.1164 -0.0264 0.0039, 0.1176 -0.0245 0.0039, 0.1235 0.0282 0.0039, 0.1164 0.0349 0.0039, 0.1164 0.0455 0.0039, 0.1146 0.0367 0.0039, 0.1052 0.0421 0.0039, 0.0943 0.0453 0.0039, 0.0917 0.0455 0.0039, 0.1164 0.0723 0.0039, 0.0844 0.0461 0.0039, 0.0516 0.0723 0.0039, 0.11 -0.0502 0.0039, 0.1164 -0.0461 0.0039, 0.1164 -0.0541 0.0039, 0.1428 -0.0535 0.0039, 0.2049 -0.0541 0.0039, 0.1932 -0.0535 0.0039, 0.2049 0.0455 0.0039, 0.1932 0.0449 0.0039, 0.18 0.0449 0.0039, 0.1179 -0.0451 0.0039, 0.1253 -0.0374 0.0039, 0.1428 -0.0427 0.0039, 0.1305 -0.028 0.0039, 0.18 -0.0427 0.0039, 0.1335 -0.0176 0.0039, 0.1344 -0.0062 0.0039, 0.133 0.0078 0.0039, 0.1292 0.019 0.0039, 0.0883 -0.0547 0.0039, 0.0941 -0.0541 0.0039, 0.1004 -0.0535 0.0039, 0.9449 -0.4724 0.0039, 0.4724 -0.4724 0.0039, 0.2049 -0.4429 0.0039, 0.2049 -0.4724 0.0039, 0.1164 -0.4724 0.0039, 0.0516 -0.4724 0.0039, -0.0204 -0.4724 0.0039, -0.4724 -0.4724 0.0039, -0.2109 -0.4724 0.0039, -0.2109 -0.4429 0.0039, -0.1128 -0.4724 0.0039, 0.4134 -0.2165 0.0039, 0.4134 -0.4134 0.0039, 0.2165 -0.4134 0.0039, 0.2165 -0.2165 0.0039, -0.2109 -0.0541 0.0039, -0.2165 -0.2165 0.0039, -0.4134 -0.2165 0.0039, -0.4134 -0.4134 0.0039, -0.2165 -0.4134 0.0039, -0.0084 0.0449 0.0039, -0.0204 0.0455 0.0039, -0.0084 0.0341 0.0039, -0.0108 -0.0427 0.0039, -0.0108 -0.0535 0.0039, 0.042 -0.0535 0.0039, 0.042 0.0449 0.0039, 0.0288 -0.0091 0.0039, 0.0288 -0.0427 0.0039, -0.006 -0.0091 0.0039, -0.006 0.0017 0.0039, 0.0288 0.0017 0.0039, 0.0288 0.0341 0.0039, -0.1043 -0.0266 0.0039, -0.1078 -0.0163 0.0039, -0.1092 -0.0031 0.0039, -0.0987 -0.0354 0.0039, -0.0906 -0.0431 0.0039, -0.0803 -0.0491 0.0039, -0.072 0.0434 0.0039, -0.1128 0.0455 0.0039, -0.0578 0.0449 0.0039, -0.0835 0.0393 0.0039, -0.0942 0.0322 0.0039, -0.0943 0.0321 0.0039, -0.1013 0.0243 0.0039, -0.1059 0.0159 0.0039, -0.1085 0.0062 0.0039, -0.0689 -0.0525 0.0039, -0.0568 -0.0535 0.0039, -0.03 -0.0535 0.0039, -0.03 0.0449 0.0039, -0.1308 -0.0535 0.0039, -0.1164 -0.0535 0.0039, -0.1668 0.0449 0.0039, -0.2053 -0.0535 0.0039, -0.1908 -0.0535 0.0039, -0.1809 -0.0259 0.0039, -0.1402 -0.0259 0.0039, -0.4724 0.0455 0.0039, -0.2109 0.0455 0.0039, -0.1536 0.0449 0.0039, -0.4724 0.0723 0.0039, -0.2109 0.0723 0.0039, -0.1128 0.0723 0.0039, -0.0204 0.0723 0.0039, 0.2049 0.0723 0.0039, 0.2049 0.1575 0.0039, -0.5315 -0.0541 0.0039, -0.5315 0.0455 0.0039, -0.0204 0.1575 0.0039, 0.0516 0.1575 0.0039, 0.1164 0.1575 0.0039, 0.5315 0.2165 0.0039, 0.7283 0.2165 0.0039, 0.5315 0.4134 0.0039, 0.4724 0.4724 0.0039, 0.7283 0.4134 0.0039, 0.9449 0.4724 0.0039, 0.2049 0.4724 0.0039, 0.2165 0.4134 0.0039, 0.2165 0.2165 0.0039, 0.4134 0.4134 0.0039, 0.4134 0.2165 0.0039, 0.1164 0.4724 0.0039, -0.1128 0.4724 0.0039, -0.0984 0.2165 0.0039, -0.0204 0.2165 0.0039, 0.0516 0.2165 0.0039, 0.0984 0.2165 0.0039, 0.0984 0.4134 0.0039, 0.0516 0.4724 0.0039, 0.0516 0.4134 0.0039, -0.0204 0.4724 0.0039, -0.0204 0.4134 0.0039, -0.0984 0.4134 0.0039, -0.2165 0.4134 0.0039, -0.2165 0.2165 0.0039, -0.4134 0.2165 0.0039, -0.4134 0.4134 0.0039, -0.4724 0.4724 0.0039, -0.5315 0.4134 0.0039, -0.5315 0.2165 0.0039, -0.7283 0.2165 0.0039, -0.7283 0.4134 0.0039, -0.8366 0.4724 0.0039, -0.9449 -0.0541 0.0039, -0.9449 0.0455 0.0039, -0.9449 0.0723 0.0039, -0.9449 0.1575 0.0039, -0.9449 0.4724 0.0039
            ]
        }
        coordIndex [
            0,1,2,-1,3,4,5,-1,6,7,8,-1,8,7,9,-1,8,9,10,-1,10,9,11,-1,12,13,14,-1,14,13,15,-1,14,15,16,-1,16,15,17,-1,16,17,18,-1,18,17,19,-1,20,21,22,-1,23,24,25,-1,25,26,23,-1,23,26,27,-1,23,27,28,-1,28,27,29,-1,30,31,32,-1,33,34,35,-1,35,36,33,-1,33,36,37,-1,33,37,38,-1,38,37,39,-1,38,39,40,-1,40,30,38,-1,38,30,32,-1,38,32,29,-1,29,32,41,-1,29,41,28,-1,22,42,20,-1,20,42,43,-1,20,43,44,-1,44,43,45,-1,44,45,34,-1,34,45,31,-1,34,31,35,-1,35,31,30,-1,46,47,48,-1,48,47,49,-1,48,49,50,-1,51,52,53,-1,53,52,54,-1,53,54,47,-1,47,54,55,-1,47,55,49,-1,49,52,50,-1,50,52,51,-1,50,51,56,-1,56,51,57,-1,56,57,58,-1,58,57,59,-1,58,59,60,-1,60,59,61,-1,61,59,62,-1,61,62,63,-1,63,62,64,-1,63,64,65,-1,66,67,68,-1,69,11,70,-1,70,11,71,-1,69,72,11,-1,11,72,73,-1,11,73,10,-1,10,73,74,-1,10,74,75,-1,71,76,77,-1,77,78,71,-1,71,78,79,-1,71,79,70,-1,70,79,80,-1,70,80,67,-1,67,80,81,-1,67,81,68,-1,82,83,68,-1,68,83,84,-1,68,84,85,-1,85,86,68,-1,68,86,87,-1,68,87,66,-1,88,89,90,-1,90,89,91,-1,90,91,92,-1,82,93,83,-1,83,93,94,-1,83,94,95,-1,95,94,90,-1,95,90,96,-1,96,90,92,-1,97,98,99,-1,99,98,100,-1,99,100,101,-1,101,102,99,-1,99,102,103,-1,99,103,104,-1,104,103,105,-1,104,105,106,-1,107,108,109,-1,109,108,110,-1,109,110,111,-1,111,110,112,-1,111,112,113,-1,113,112,114,-1,113,114,115,-1,108,116,110,-1,110,116,117,-1,110,117,118,-1,118,117,119,-1,118,119,120,-1,119,121,120,-1,120,121,122,-1,120,122,115,-1,115,122,123,-1,115,123,124,-1,74,125,75,-1,75,125,126,-1,75,126,109,-1,109,126,127,-1,109,127,107,-1,38,128,33,-1,33,128,129,-1,33,129,130,-1,130,129,131,-1,130,131,18,-1,18,131,132,-1,18,132,16,-1,16,132,133,-1,16,133,14,-1,14,133,134,-1,14,134,12,-1,3,53,135,-1,135,53,47,-1,135,47,136,-1,136,47,137,-1,136,137,138,-1,139,34,140,-1,140,34,33,-1,140,33,141,-1,141,33,130,-1,141,130,142,-1,19,75,18,-1,18,75,109,-1,18,109,130,-1,130,109,111,-1,130,111,142,-1,142,111,139,-1,134,138,12,-1,12,138,137,-1,12,137,143,-1,143,137,144,-1,143,144,46,-1,46,144,145,-1,46,145,47,-1,47,145,146,-1,47,146,137,-1,137,146,147,-1,137,147,144,-1,148,149,71,-1,148,150,149,-1,149,150,151,-1,149,151,9,-1,9,151,152,-1,9,152,11,-1,11,152,153,-1,11,153,71,-1,71,153,154,-1,71,154,148,-1,155,156,157,-1,157,156,151,-1,157,151,158,-1,158,151,150,-1,158,150,159,-1,159,150,160,-1,161,7,162,-1,162,7,163,-1,161,164,7,-1,7,164,165,-1,7,165,166,-1,167,168,169,-1,169,168,149,-1,167,170,168,-1,168,170,171,-1,168,171,172,-1,172,173,168,-1,168,173,174,-1,168,174,175,-1,166,176,7,-1,7,176,177,-1,7,177,9,-1,9,177,178,-1,9,178,149,-1,149,178,179,-1,149,179,169,-1,180,181,7,-1,7,181,168,-1,7,168,163,-1,163,168,175,-1,182,183,143,-1,143,183,184,-1,185,186,184,-1,184,186,180,-1,184,180,143,-1,143,180,7,-1,143,7,12,-1,12,7,6,-1,12,6,13,-1,46,187,143,-1,143,187,188,-1,143,188,182,-1,182,188,168,-1,182,168,189,-1,189,168,181,-1,187,190,188,-1,188,190,191,-1,188,191,168,-1,168,191,192,-1,168,192,149,-1,149,192,193,-1,149,193,71,-1,71,193,106,-1,71,106,76,-1,76,106,105,-1,139,111,34,-1,34,111,113,-1,34,113,44,-1,44,113,194,-1,44,194,20,-1,20,194,195,-1,20,195,21,-1,48,196,46,-1,46,196,197,-1,46,197,187,-1,187,197,65,-1,187,65,190,-1,190,65,64,-1,190,64,191,-1,191,64,1,-1,191,1,192,-1,192,1,0,-1,192,0,193,-1,193,0,198,-1,193,198,106,-1,106,198,199,-1,106,199,104,-1,104,199,200,-1,21,201,202,-1,201,21,203,-1,203,21,204,-1,203,204,205,-1,205,204,206,-1,205,206,202,-1,202,206,25,-1,202,25,21,-1,21,25,24,-1,21,24,22,-1,207,208,209,-1,208,207,210,-1,210,207,204,-1,210,204,211,-1,211,204,21,-1,211,21,209,-1,209,21,195,-1,209,195,207,-1,124,97,115,-1,115,97,99,-1,115,99,113,-1,113,99,104,-1,113,104,194,-1,194,104,200,-1,194,200,195,-1,195,200,212,-1,195,212,207,-1,2,213,0,-1,0,213,214,-1,0,214,198,-1,198,214,215,-1,198,215,199,-1,199,215,216,-1,199,216,200,-1,200,216,217,-1,200,217,212,-1,212,217,218,-1,212,218,219,-1,219,218,220,-1,219,220,221,-1,221,220,222,-1,221,222,213,-1,213,222,223,-1,213,223,214,-1,224,2,225,-1,225,2,1,-1,225,1,226,-1,226,1,64,-1,226,64,227,-1,227,64,228,-1,227,228,224,-1,224,228,2,-1,229,228,230,-1,230,228,64,-1,230,64,231,-1,231,64,62,-1,231,62,232,-1,232,62,233,-1,232,233,229,-1,229,233,228,-1,3,5,53,-1,53,5,234,-1,53,234,51,-1,51,234,235,-1,51,235,57,-1,57,235,236,-1,57,236,59,-1,59,236,237,-1,59,237,62,-1,62,237,238,-1,62,238,233,-1,
        ]
    }
}
Shape{
    appearance Appearance {
        material  Material 	{
            diffuseColor 0.2235294117647059 0.2235294117647059 0.2235294117647059
            specularColor 0.11372549019607843 0.11372549019607843 0.11372549019607843
            ambientIntensity 0.2235
            transparency 0.0
            shininess 0.5
        }
    }
    geometry IndexedFaceSet {
        ccw TRUE
        solid FALSE
        coord DEF co Coordinate {
            point [
                0.9547 -0.4895 0.0827, 0.9524 -0.4906 0.0827, 0.9449 -0.4724 0.0827, 0.1618 -0.4847 0.0827, 0.1594 -0.481 0.0827, 0.1772 -0.4921 0.0827, 0.9619 0.4823 0.0827, 0.9631 0.48 0.0827, 0.9449 0.4724 0.0827, 0.9569 -0.4881 0.0827, 0.158 -0.4768 0.0827, 0.1575 -0.4724 0.0827, 0.9449 -0.4921 0.0827, 0.95 -0.4915 0.0827, 0.9605 0.4844 0.0827, 0.9639 0.4776 0.0827, 0.9646 0.4725 0.0827, 0.9646 -0.4725 0.0827, 0.9639 -0.4776 0.0827, 0.9631 -0.48 0.0827, 0.9619 -0.4823 0.0827, 0.1652 0.4881 0.0827, 0.1575 0.4724 0.0827, 0.1632 0.4864 0.0827, 0.1582 0.4775 0.0827, 0.1601 0.4823 0.0827, 0.95 0.4915 0.0827, 0.9524 0.4906 0.0827, 0.9547 0.4895 0.0827, 0.1728 -0.4916 0.0827, 0.1686 -0.4902 0.0827, 0.1649 -0.4878 0.0827, 0.9605 -0.4844 0.0827, 0.9588 -0.4864 0.0827, 0.1673 0.4895 0.0827, 0.1696 0.4906 0.0827, 0.1721 0.4915 0.0827, 0.9569 0.4881 0.0827, 0.9588 0.4864 0.0827, 0.1746 0.492 0.0827, 0.1772 0.4921 0.0827, 0.9449 0.4921 0.0827, 0.1772 0.1294 0.6181, 0.2362 -0.3863 0.6181, 0.2362 0.3863 0.6181, 0.1772 -0.4454 0.6181, 0.8588 -0.3863 0.6181, 0.9178 -0.4454 0.6181, 0.8588 0.3863 0.6181, 0.9178 0.4454 0.6181, 0.1772 0.4454 0.6181, -0.1665 -0.246 0.6181, -0.1534 -0.218 0.6181, -0.1772 0.1294 0.6181, -0.1745 -0.2758 0.6181, 0.0308 -0.1321 0.6181, 0.0606 -0.1401 0.6181, 0.0886 -0.1532 0.6181, -0.1357 -0.1927 0.6181, -0.1139 -0.1709 0.6181, -0.0886 -0.1532 0.6181, 0.1139 -0.1709 0.6181, 0.1357 -0.1927 0.6181, 0.1534 -0.218 0.6181, -0.1772 -0.3066 0.6181, -0.2362 -0.3863 0.6181, -0.2362 0.3863 0.6181, -0.1772 0.4454 0.6181, -0.8588 0.3863 0.6181, -0.9178 0.4454 0.6181, -0.8588 -0.3863 0.6181, -0.9178 -0.4454 0.6181, -0.1772 -0.4454 0.6181, 0.1665 -0.246 0.6181, 0.1745 -0.2758 0.6181, 0.1772 -0.3066 0.6181, -0.0606 -0.1401 0.6181, -0.0308 -0.1321 0.6181, 0.0 -0.1294 0.6181
            ]
        }
        coordIndex [
            0,1,2,-1,3,4,5,-1,6,7,8,-1,0,2,9,-1,4,10,5,-1,5,10,11,-1,5,11,12,-1,12,11,2,-1,12,2,13,-1,13,2,1,-1,6,8,14,-1,7,15,8,-1,8,15,16,-1,8,16,2,-1,2,16,17,-1,17,18,2,-1,2,18,19,-1,2,19,20,-1,21,22,23,-1,23,22,24,-1,23,24,25,-1,26,27,8,-1,8,27,28,-1,29,30,5,-1,5,30,31,-1,5,31,3,-1,20,32,2,-1,2,32,33,-1,2,33,9,-1,21,34,22,-1,22,34,35,-1,22,35,36,-1,28,37,8,-1,8,37,38,-1,8,38,14,-1,36,39,22,-1,22,39,40,-1,22,40,8,-1,8,40,41,-1,8,41,26,-1,42,43,44,-1,43,45,46,-1,46,45,47,-1,46,47,48,-1,48,47,49,-1,48,49,44,-1,44,49,50,-1,44,50,42,-1,51,52,53,-1,51,53,54,-1,55,56,42,-1,42,56,57,-1,52,58,53,-1,53,58,59,-1,53,59,60,-1,57,61,42,-1,42,61,62,-1,42,62,63,-1,64,54,65,-1,65,54,53,-1,65,53,66,-1,66,53,67,-1,66,67,68,-1,68,67,69,-1,68,69,70,-1,70,69,71,-1,70,71,65,-1,65,71,72,-1,65,72,64,-1,63,73,42,-1,42,73,74,-1,42,74,43,-1,43,74,75,-1,43,75,45,-1,60,76,53,-1,53,76,77,-1,53,77,42,-1,42,77,78,-1,42,78,55,-1,
        ]
    }
}
Shape{
    appearance Appearance {
        material  Material 	{
            diffuseColor 0.9058823529411765 0.7450980392156863 0.0
            specularColor 0.45098039215686275 0.37254901960784315 0.0
            ambientIntensity 0.7082
            transparency 0.0
            shininess 0.5
        }
    }
    geometry IndexedFaceSet {
        ccw TRUE
        solid FALSE
        coord DEF co Coordinate {
            point [
                -0.8588 -0.3863 0.6181, -0.2362 -0.3863 0.6181, -0.8588 0.3863 0.6181, -0.2362 0.3863 0.6181
            ]
        }
        coordIndex [
            0,1,2,-1,2,1,3,-1,
        ]
    }
}
Shape{
    appearance Appearance {
        material  Material 	{
            diffuseColor 0.2235294117647059 0.2235294117647059 0.2235294117647059
            specularColor 0.11372549019607843 0.11372549019607843 0.11372549019607843
            ambientIntensity 0.2235
            transparency 0.0
            shininess 0.5
        }
    }
    geometry IndexedFaceSet {
        ccw TRUE
        solid FALSE
        coord DEF co Coordinate {
            point [
                0.9178 0.465 0.5995, 0.9449 0.4921 0.0827, 0.1772 0.465 0.5995, 0.1772 0.4921 0.0827, -0.9178 -0.465 0.5995, -0.9449 -0.4921 0.0827, -0.1772 -0.465 0.5995, -0.1772 -0.4921 0.0827
            ]
        }
        coordIndex [
            0,1,2,-1,2,1,3,-1,4,5,6,-1,6,5,7,-1,
        ]
    }
}
Shape{
    appearance Appearance {
        material  Material 	{
            diffuseColor 0.9058823529411765 0.7450980392156863 0.0
            specularColor 0.45098039215686275 0.37254901960784315 0.0
            ambientIntensity 0.7082
            transparency 0.0
            shininess 0.5
        }
    }
    geometry IndexedFaceSet {
        ccw TRUE
        solid FALSE
        coord DEF co Coordinate {
            point [
                0.2362 -0.3863 0.6181, 0.8588 -0.3863 0.6181, 0.2362 0.3863 0.6181, 0.8588 0.3863 0.6181
            ]
        }
        coordIndex [
            0,1,2,-1,2,1,3,-1,
        ]
    }
}
Shape{
    appearance Appearance {
        material  Material 	{
            diffuseColor 0.2235294117647059 0.2235294117647059 0.2235294117647059
            specularColor 0.11372549019607843 0.11372549019607843 0.11372549019607843
            ambientIntensity 0.2235
            transparency 0.0
            shininess 0.5
        }
    }
    geometry IndexedFaceSet {
        ccw TRUE
        solid FALSE
        coord DEF co Coordinate {
            point [
                -0.9547 0.4895 0.0827, -0.9524 0.4906 0.0827, -0.9449 0.4724 0.0827, -0.9619 -0.4823 0.0827, -0.9631 -0.48 0.0827, -0.9449 -0.4724 0.0827, -0.9569 0.4881 0.0827, -0.1673 0.4895 0.0827, -0.1652 0.4881 0.0827, -0.1575 0.4724 0.0827, -0.1632 0.4864 0.0827, -0.1582 0.4775 0.0827, -0.1601 0.4823 0.0827, -0.9605 -0.4844 0.0827, -0.9639 -0.4776 0.0827, -0.9646 -0.4725 0.0827, -0.9646 0.4725 0.0827, -0.1575 -0.4724 0.0827, -0.1772 -0.4921 0.0827, -0.9449 -0.4921 0.0827, -0.1746 0.492 0.0827, -0.1721 0.4915 0.0827, -0.1696 0.4906 0.0827, -0.9639 0.4776 0.0827, -0.9631 0.48 0.0827, -0.9619 0.4823 0.0827, -0.158 -0.4768 0.0827, -0.1594 -0.481 0.0827, -0.1618 -0.4847 0.0827, -0.95 -0.4915 0.0827, -0.9524 -0.4906 0.0827, -0.9547 -0.4895 0.0827, -0.95 0.4915 0.0827, -0.9449 0.4921 0.0827, -0.1772 0.4921 0.0827, -0.9605 0.4844 0.0827, -0.9588 0.4864 0.0827, -0.9569 -0.4881 0.0827, -0.9588 -0.4864 0.0827, -0.1649 -0.4878 0.0827, -0.1686 -0.4902 0.0827, -0.1728 -0.4916 0.0827, 0.9646 -0.4725 0.0827, 0.9646 0.4725 0.0827, 0.9375 -0.4454 0.5995, 0.9375 0.4454 0.5995, -0.1772 0.465 0.5995, -0.9178 0.465 0.5995, -0.9375 -0.4454 0.5995, -0.9375 0.4454 0.5995, 0.1772 -0.465 0.5995, 0.1772 -0.4921 0.0827, 0.9178 -0.465 0.5995, 0.9449 -0.4921 0.0827, 0.0766 0.3836 0.5984, 0.0938 0.3612 0.5984, 0.1575 0.4454 0.5984, 0.0938 0.253 0.5984, 0.0766 0.2305 0.5984, 0.1575 0.1491 0.5984, 0.0541 0.2133 0.5984, -0.0766 0.2305 0.5984, -0.0938 0.253 0.5984, -0.1575 0.1491 0.5984, 0.0541 0.4008 0.5984, -0.0541 0.2133 0.5984, -0.0938 0.3612 0.5984, -0.0766 0.3836 0.5984, -0.1575 0.4454 0.5984, -0.0541 0.4008 0.5984, -0.028 0.4117 0.5984, 0.0 0.4154 0.5984, 0.028 0.4117 0.5984, 0.028 0.2025 0.5984, 0.0 0.1988 0.5984, -0.028 0.2025 0.5984, 0.1046 0.3351 0.5984, 0.1083 0.3071 0.5984, 0.1046 0.2791 0.5984, -0.1046 0.2791 0.5984, -0.1083 0.3071 0.5984, -0.1046 0.3351 0.5984, 0.1575 0.4724 0.0827, -0.1575 0.4724 0.0827, 0.1575 -0.4454 0.5984, -0.1575 -0.4454 0.5984, 0.1575 -0.4724 0.0827, -0.1575 -0.4724 0.0827, 0.0 -0.4149 0.5984, -0.028 -0.4112 0.5984, -0.0541 -0.4003 0.5984, 0.0541 -0.2128 0.5984, 0.0539 -0.1586 0.5984, 0.028 -0.202 0.5984, 0.0273 -0.1515 0.5984, 0.0 -0.1983 0.5984, -0.0766 -0.3831 0.5984, -0.0938 -0.3607 0.5984, -0.1575 -0.3066 0.5984, 0.0 -0.1491 0.5984, -0.0273 -0.1515 0.5984, -0.028 -0.202 0.5984, -0.0539 -0.1586 0.5984, -0.0541 -0.2128 0.5984, -0.0787 -0.1702 0.5984, -0.0766 -0.23 0.5984, 0.0766 -0.23 0.5984, 0.1012 -0.1859 0.5984, 0.0787 -0.1702 0.5984, -0.1046 -0.3346 0.5984, -0.1083 -0.3066 0.5984, -0.1551 -0.2792 0.5984, -0.1046 -0.2786 0.5984, -0.1012 -0.1859 0.5984, -0.1206 -0.2054 0.5984, -0.0938 -0.2525 0.5984, -0.1364 -0.2278 0.5984, -0.148 -0.2527 0.5984, 0.1575 -0.3066 0.5984, 0.1551 -0.2792 0.5984, 0.1046 -0.2786 0.5984, 0.148 -0.2527 0.5984, 0.0938 -0.2525 0.5984, 0.1364 -0.2278 0.5984, 0.1206 -0.2054 0.5984, 0.0766 -0.3831 0.5984, 0.0541 -0.4003 0.5984, 0.028 -0.4112 0.5984, 0.1083 -0.3066 0.5984, 0.1046 -0.3346 0.5984, 0.0938 -0.3607 0.5984, 0.1686 -0.4902 0.0827, 0.1728 -0.4916 0.0827, 0.1728 -0.4645 0.5994, 0.1721 -0.4643 0.5994, 0.1686 -0.4631 0.5994, 0.1649 -0.4878 0.0827, 0.1674 -0.4623 0.5993, 0.1649 -0.4608 0.5992, 0.1618 -0.4847 0.0827, 0.1633 -0.4592 0.5991, 0.1618 -0.4576 0.5991, 0.1602 -0.4552 0.5989, 0.1594 -0.481 0.0827, 0.1594 -0.4539 0.5989, 0.1582 -0.4505 0.5987, 0.158 -0.4768 0.0827, 0.158 -0.4498 0.5987, 0.1575 -0.4724 0.0827, -0.158 -0.4498 0.5987, -0.1582 -0.4505 0.5987, -0.1594 -0.4539 0.5989, -0.1602 -0.4552 0.5989, -0.1618 -0.4576 0.5991, -0.1633 -0.4592 0.5991, -0.1649 -0.4608 0.5992, -0.1674 -0.4623 0.5993, -0.1686 -0.4631 0.5994, -0.1721 -0.4643 0.5994, -0.1728 -0.4645 0.5994, -0.1772 -0.465 0.5995, 0.1576 0.149 0.6006, 0.158 0.1486 0.6028, 0.158 0.4454 0.6028, 0.1586 0.148 0.6049, 0.1594 0.1472 0.607, 0.1594 0.4454 0.607, 0.1686 0.138 0.6162, 0.1728 0.1338 0.6176, 0.1728 0.4454 0.6176, 0.1772 0.1294 0.6181, 0.1772 0.4454 0.6181, 0.1728 0.4454 0.6176, 0.1686 0.4454 0.6162, 0.1649 0.1417 0.6138, 0.1686 0.4454 0.6161, 0.1649 0.4454 0.6138, 0.1618 0.1448 0.6107, 0.1648 0.4454 0.6138, 0.1618 0.4454 0.6107, 0.1617 0.4454 0.6106, 0.1594 0.4454 0.6068, 0.1579 0.4454 0.6027, 0.1601 0.4823 0.0827, 0.1601 0.4552 0.5989, 0.1632 0.4593 0.5992, 0.1575 0.4724 0.0827, 0.1582 0.4505 0.5987, 0.1582 0.4775 0.0827, 0.1582 0.4505 0.5987, 0.1721 0.4644 0.5994, 0.1696 0.4906 0.0827, 0.1673 0.4624 0.5993, 0.1673 0.4895 0.0827, 0.1633 0.4593 0.5992, 0.1652 0.4881 0.0827, 0.1632 0.4864 0.0827, 0.1772 0.465 0.5995, 0.1772 0.4921 0.0827, 0.1721 0.4644 0.5994, 0.1746 0.492 0.0827, 0.1721 0.4915 0.0827, -0.1721 0.4644 0.5994, -0.1721 0.4644 0.5994, -0.1673 0.4624 0.5993, -0.1633 0.4593 0.5992, -0.1632 0.4593 0.5992, -0.1601 0.4552 0.5989, -0.1582 0.4505 0.5987, -0.1582 0.4505 0.5987, -0.1579 0.4454 0.6027, -0.1576 0.149 0.6006, -0.158 0.4454 0.6028, -0.158 0.1486 0.6028, -0.1594 0.4454 0.6068, -0.1586 0.148 0.6049, -0.1594 0.4454 0.607, -0.1594 0.1472 0.607, -0.1617 0.4454 0.6106, -0.1618 0.1448 0.6107, -0.1618 0.4454 0.6107, -0.1649 0.1417 0.6138, -0.1648 0.4454 0.6138, -0.1649 0.4454 0.6138, -0.1686 0.138 0.6162, -0.1686 0.4454 0.6161, -0.1686 0.4454 0.6162, -0.1728 0.1338 0.6176, -0.1728 0.4454 0.6176, -0.1728 0.4454 0.6176, -0.1772 0.4454 0.6181, -0.1772 0.1294 0.6181, 0.1689 0.4476 0.6161, 0.1729 0.4465 0.6176, 0.1733 0.4476 0.6176, 0.1586 0.4504 0.6027, 0.1605 0.455 0.6027, 0.1636 0.459 0.6027, 0.1676 0.462 0.6027, 0.1722 0.464 0.6027, 0.1772 0.4646 0.6027, 0.1772 0.4498 0.6176, 0.176 0.4496 0.6176, 0.1772 0.4503 0.6174, 0.175 0.4492 0.6176, 0.1697 0.4497 0.6161, 0.174 0.4485 0.6176, 0.1711 0.4515 0.6161, 0.1729 0.4528 0.6161, 0.1749 0.4537 0.6161, 0.1653 0.4486 0.6138, 0.1665 0.4516 0.6138, 0.1684 0.4541 0.6138, 0.171 0.4561 0.6138, 0.174 0.4573 0.6138, 0.1622 0.4494 0.6106, 0.1772 0.454 0.6161, 0.1772 0.4549 0.6156, 0.1772 0.4577 0.6138, 0.1772 0.4589 0.6126, 0.1732 0.4603 0.6106, 0.1694 0.4588 0.6106, 0.1662 0.4563 0.6106, 0.1638 0.4531 0.6106, 0.16 0.45 0.6068, 0.1618 0.4543 0.6068, 0.1646 0.458 0.6068, 0.1683 0.4608 0.6068, 0.1726 0.4626 0.6068, 0.1772 0.4608 0.6106, 0.1772 0.462 0.6088, 0.1772 0.4632 0.6068, 0.1772 0.464 0.6043, 0.9178 0.4503 0.6175, 0.9178 0.4549 0.6156, 0.9178 0.4503 0.6175, 0.9178 0.4454 0.6181, 0.9178 0.455 0.6156, 0.9178 0.4589 0.6127, 0.9178 0.459 0.6126, 0.9178 0.4621 0.6088, 0.9178 0.4621 0.6088, 0.9178 0.4641 0.6043, 0.9178 0.4642 0.6042, 0.9178 0.465 0.5995, 0.9229 0.4644 0.5997, 0.9449 0.4921 0.0827, 0.95 0.4915 0.0827, 0.9524 0.4906 0.0827, 0.9229 0.4644 0.5997, 0.9547 0.4895 0.0827, 0.9276 0.4624 0.5998, 0.9569 0.4881 0.0827, 0.9276 0.4624 0.5998, 0.9588 0.4864 0.0827, 0.9317 0.4593 0.5999, 0.9605 0.4844 0.0827, 0.9348 0.4552 0.5998, 0.9619 0.4823 0.0827, 0.9348 0.4552 0.5998, 0.9631 0.48 0.0827, 0.9368 0.4505 0.5997, 0.9639 0.4776 0.0827, 0.9368 0.4505 0.5997, 0.9213 0.4585 0.6126, 0.9203 0.4547 0.6156, 0.9191 0.4502 0.6175, 0.9203 0.4497 0.6175, 0.9221 0.4479 0.6175, 0.9213 0.4489 0.6175, 0.9226 0.4467 0.6175, 0.9227 0.4636 0.6042, 0.9272 0.4617 0.6042, 0.9311 0.4587 0.6042, 0.9341 0.4548 0.6042, 0.936 0.4503 0.6042, 0.9366 0.4454 0.6042, 0.9228 0.4454 0.6175, 0.9226 0.4537 0.6156, 0.9246 0.4522 0.6156, 0.9261 0.4502 0.6156, 0.9271 0.4479 0.6156, 0.9228 0.4454 0.6175, 0.9274 0.4454 0.6156, 0.9274 0.4454 0.6156, 0.9314 0.4454 0.6127, 0.9246 0.4572 0.6126, 0.9275 0.455 0.6126, 0.9296 0.4522 0.6126, 0.931 0.4489 0.6126, 0.9222 0.4616 0.6088, 0.9262 0.4599 0.6088, 0.9297 0.4572 0.6088, 0.9323 0.4538 0.6088, 0.934 0.4497 0.6088, 0.9314 0.4454 0.6126, 0.9345 0.4454 0.6088, 0.9346 0.4454 0.6088, 0.9366 0.4454 0.6043, 0.9178 -0.4454 0.6181, 0.9228 -0.4454 0.6175, 0.9366 -0.4454 0.6042, 0.9366 -0.4454 0.6043, 0.9346 -0.4454 0.6088, 0.9345 -0.4454 0.6088, 0.9314 -0.4454 0.6126, 0.9314 -0.4454 0.6127, 0.9274 -0.4454 0.6156, 0.9274 -0.4454 0.6156, 0.9228 -0.4454 0.6175, 0.9369 -0.4497 0.5997, 0.9639 -0.4776 0.0827, 0.9368 -0.4505 0.5997, 0.9631 -0.48 0.0827, 0.9354 -0.4539 0.5998, 0.9619 -0.4823 0.0827, 0.9348 -0.4552 0.5998, 0.9605 -0.4844 0.0827, 0.933 -0.4575 0.5999, 0.9588 -0.4864 0.0827, 0.9317 -0.4593 0.5999, 0.9569 -0.4881 0.0827, 0.93 -0.4606 0.5999, 0.9547 -0.4895 0.0827, 0.9276 -0.4624 0.5998, 0.9524 -0.4906 0.0827, 0.9263 -0.463 0.5998, 0.95 -0.4915 0.0827, 0.9229 -0.4644 0.5997, 0.9222 -0.4645 0.5997, 0.9342 -0.4491 0.6088, 0.9311 -0.4484 0.6126, 0.9272 -0.4475 0.6156, 0.9227 -0.4465 0.6175, 0.9223 -0.4475 0.6175, 0.92 -0.4499 0.6175, 0.9209 -0.4493 0.6175, 0.9189 -0.4502 0.6175, 0.9362 -0.4496 0.6042, 0.9348 -0.4535 0.6042, 0.9325 -0.4571 0.6042, 0.9296 -0.4601 0.6042, 0.926 -0.4623 0.6042, 0.922 -0.4637 0.6042, 0.9178 -0.4642 0.6042, 0.9178 -0.4503 0.6175, 0.9253 -0.4514 0.6156, 0.9238 -0.4529 0.6156, 0.922 -0.454 0.6156, 0.92 -0.4547 0.6156, 0.9265 -0.4495 0.6156, 0.9217 -0.4485 0.6175, 0.9178 -0.4503 0.6175, 0.9178 -0.4549 0.6156, 0.9178 -0.455 0.6156, 0.9178 -0.4589 0.6127, 0.9301 -0.4513 0.6126, 0.9285 -0.4539 0.6126, 0.9263 -0.456 0.6126, 0.9237 -0.4577 0.6126, 0.9209 -0.4587 0.6126, 0.9329 -0.4527 0.6088, 0.9309 -0.4558 0.6088, 0.9283 -0.4585 0.6088, 0.9251 -0.4605 0.6088, 0.9216 -0.4617 0.6088, 0.9178 -0.459 0.6126, 0.9178 -0.4621 0.6088, 0.9178 -0.4621 0.6088, 0.9178 -0.4641 0.6043, 0.1772 -0.462 0.6088, 0.1772 -0.4608 0.6106, 0.1772 -0.4589 0.6126, 0.1772 -0.4577 0.6138, 0.1772 -0.4549 0.6156, 0.1772 -0.454 0.6161, 0.1772 -0.4503 0.6174, 0.1772 -0.4498 0.6176, 0.1772 -0.4454 0.6181, 0.1772 -0.4646 0.6027, 0.1772 -0.464 0.6043, 0.1772 -0.4632 0.6068, 0.175 -0.4492 0.6176, 0.176 -0.4496 0.6176, 0.1733 -0.4476 0.6176, 0.174 -0.4485 0.6176, 0.1749 -0.4537 0.6161, 0.174 -0.4573 0.6138, 0.1582 -0.4454 0.6035, 0.1579 -0.4454 0.6027, 0.1586 -0.4504 0.6027, 0.1676 -0.462 0.6027, 0.1722 -0.464 0.6027, 0.1636 -0.459 0.6027, 0.1605 -0.455 0.6027, 0.1602 -0.4454 0.6082, 0.1594 -0.4454 0.6068, 0.16 -0.45 0.6068, 0.1618 -0.4543 0.6068, 0.1646 -0.458 0.6068, 0.1683 -0.4608 0.6068, 0.1726 -0.4626 0.6068, 0.1633 -0.4454 0.6123, 0.1617 -0.4454 0.6106, 0.1622 -0.4494 0.6106, 0.1638 -0.4531 0.6106, 0.1662 -0.4563 0.6106, 0.1694 -0.4588 0.6106, 0.1732 -0.4603 0.6106, 0.1674 -0.4454 0.6154, 0.1648 -0.4454 0.6138, 0.1653 -0.4486 0.6138, 0.1665 -0.4516 0.6138, 0.1684 -0.4541 0.6138, 0.171 -0.4561 0.6138, 0.1721 -0.4454 0.6174, 0.1686 -0.4454 0.6161, 0.1689 -0.4476 0.6161, 0.1697 -0.4497 0.6161, 0.1711 -0.4515 0.6161, 0.1729 -0.4528 0.6161, 0.1728 -0.4454 0.6176, 0.1729 -0.4465 0.6176, 0.1772 -0.3066 0.6181, 0.1728 -0.3066 0.6176, 0.1721 -0.3066 0.6174, 0.1686 -0.3066 0.6162, 0.1674 -0.3066 0.6154, 0.1649 -0.3066 0.6138, 0.1633 -0.3066 0.6123, 0.1618 -0.3066 0.6107, 0.1602 -0.3066 0.6082, 0.1594 -0.3066 0.607, 0.1582 -0.3066 0.6035, 0.158 -0.3066 0.6028, 0.1702 -0.2766 0.6176, 0.1745 -0.2758 0.6181, 0.1665 -0.246 0.6181, 0.1624 -0.2475 0.6176, 0.1534 -0.218 0.6181, 0.1496 -0.2202 0.6176, 0.1357 -0.1927 0.6181, 0.1324 -0.1955 0.6176, 0.1139 -0.1709 0.6181, 0.1111 -0.1742 0.6176, 0.0886 -0.1532 0.6181, 0.0864 -0.1569 0.6176, 0.0606 -0.1401 0.6181, 0.0591 -0.1442 0.6176, 0.0308 -0.1321 0.6181, 0.03 -0.1364 0.6176, 0.0 -0.1294 0.6181, 0.0 -0.1338 0.6176, 0.1661 -0.2773 0.6162, 0.1585 -0.2489 0.6162, 0.146 -0.2223 0.6162, 0.1292 -0.1982 0.6162, 0.1084 -0.1774 0.6162, 0.0843 -0.1606 0.6162, 0.0577 -0.1481 0.6162, 0.0293 -0.1405 0.6162, 0.0 -0.138 0.6162, 0.1624 -0.278 0.6138, 0.1549 -0.2502 0.6138, 0.1428 -0.2241 0.6138, 0.1263 -0.2006 0.6138, 0.106 -0.1803 0.6138, 0.0824 -0.1638 0.6138, 0.0564 -0.1516 0.6138, 0.0286 -0.1442 0.6138, 0.0 -0.1417 0.6138, 0.1593 -0.2785 0.6107, 0.152 -0.2513 0.6107, 0.1401 -0.2257 0.6107, 0.1239 -0.2026 0.6107, 0.104 -0.1827 0.6107, 0.0809 -0.1665 0.6107, 0.0553 -0.1546 0.6107, 0.0281 -0.1473 0.6107, 0.0 -0.1448 0.6107, 0.157 -0.2789 0.607, 0.1498 -0.2521 0.607, 0.1381 -0.2269 0.607, 0.1221 -0.2041 0.607, 0.1025 -0.1845 0.607, 0.0797 -0.1685 0.607, 0.0545 -0.1568 0.607, 0.0277 -0.1496 0.607, 0.0 -0.1472 0.607, 0.1556 -0.2792 0.6028, 0.1484 -0.2526 0.6028, 0.1368 -0.2276 0.6028, 0.121 -0.205 0.6028, 0.1015 -0.1856 0.6028, 0.079 -0.1698 0.6028, 0.054 -0.1581 0.6028, 0.0274 -0.151 0.6028, 0.0 -0.1486 0.6028, -0.0274 -0.151 0.6028, -0.0277 -0.1496 0.607, -0.0281 -0.1473 0.6107, -0.0293 -0.1405 0.6162, -0.0308 -0.1321 0.6181, -0.03 -0.1364 0.6176, -0.0606 -0.1401 0.6181, -0.0591 -0.1442 0.6176, -0.0886 -0.1532 0.6181, -0.0864 -0.1569 0.6176, -0.1139 -0.1709 0.6181, -0.1111 -0.1742 0.6176, -0.1357 -0.1927 0.6181, -0.1324 -0.1955 0.6176, -0.1534 -0.218 0.6181, -0.1496 -0.2202 0.6176, -0.1665 -0.246 0.6181, -0.1624 -0.2475 0.6176, -0.1745 -0.2758 0.6181, -0.1702 -0.2766 0.6176, -0.1772 -0.3066 0.6181, -0.1728 -0.3066 0.6176, -0.1721 -0.3066 0.6174, -0.1661 -0.2773 0.6162, -0.1585 -0.2489 0.6162, -0.146 -0.2223 0.6162, -0.1292 -0.1982 0.6162, -0.1084 -0.1774 0.6162, -0.0843 -0.1606 0.6162, -0.0577 -0.1481 0.6162, -0.0286 -0.1442 0.6138, -0.0564 -0.1516 0.6138, -0.0824 -0.1638 0.6138, -0.106 -0.1803 0.6138, -0.1263 -0.2006 0.6138, -0.1428 -0.2241 0.6138, -0.1549 -0.2502 0.6138, -0.1624 -0.278 0.6138, -0.1686 -0.3066 0.6162, -0.1674 -0.3066 0.6154, -0.1649 -0.3066 0.6138, -0.1633 -0.3066 0.6123, -0.1593 -0.2785 0.6107, -0.152 -0.2513 0.6107, -0.1401 -0.2257 0.6107, -0.1239 -0.2026 0.6107, -0.104 -0.1827 0.6107, -0.0809 -0.1665 0.6107, -0.0553 -0.1546 0.6107, -0.0545 -0.1568 0.607, -0.0797 -0.1685 0.607, -0.1025 -0.1845 0.607, -0.1221 -0.2041 0.607, -0.1381 -0.2269 0.607, -0.1498 -0.2521 0.607, -0.157 -0.2789 0.607, -0.1618 -0.3066 0.6107, -0.1602 -0.3066 0.6082, -0.1594 -0.3066 0.607, -0.1582 -0.3066 0.6035, -0.054 -0.1581 0.6028, -0.079 -0.1698 0.6028, -0.1015 -0.1856 0.6028, -0.121 -0.205 0.6028, -0.1368 -0.2276 0.6028, -0.1484 -0.2526 0.6028, -0.1556 -0.2792 0.6028, -0.158 -0.3066 0.6028, -0.1579 -0.4454 0.6027, -0.1582 -0.4454 0.6035, -0.1594 -0.4454 0.6068, -0.1602 -0.4454 0.6082, -0.1617 -0.4454 0.6106, -0.1633 -0.4454 0.6123, -0.1648 -0.4454 0.6138, -0.1674 -0.4454 0.6154, -0.1686 -0.4454 0.6161, -0.1721 -0.4454 0.6174, -0.1728 -0.4454 0.6176, -0.1772 -0.4454 0.6181, -0.1733 -0.4476 0.6176, -0.1729 -0.4465 0.6176, -0.175 -0.4492 0.6176, -0.174 -0.4485 0.6176, -0.1689 -0.4476 0.6161, -0.1586 -0.4504 0.6027, -0.1605 -0.455 0.6027, -0.1636 -0.459 0.6027, -0.1676 -0.462 0.6027, -0.1722 -0.464 0.6027, -0.1772 -0.4646 0.6027, -0.1772 -0.462 0.6088, -0.1772 -0.4632 0.6068, -0.1726 -0.4626 0.6068, -0.1772 -0.464 0.6043, -0.16 -0.45 0.6068, -0.1618 -0.4543 0.6068, -0.1646 -0.458 0.6068, -0.1683 -0.4608 0.6068, -0.1772 -0.4589 0.6126, -0.1772 -0.4608 0.6106, -0.1732 -0.4603 0.6106, -0.1694 -0.4588 0.6106, -0.1662 -0.4563 0.6106, -0.1638 -0.4531 0.6106, -0.1622 -0.4494 0.6106, -0.1772 -0.4549 0.6156, -0.1772 -0.4577 0.6138, -0.174 -0.4573 0.6138, -0.171 -0.4561 0.6138, -0.1684 -0.4541 0.6138, -0.1665 -0.4516 0.6138, -0.1653 -0.4486 0.6138, -0.1772 -0.4503 0.6174, -0.1772 -0.454 0.6161, -0.1749 -0.4537 0.6161, -0.1729 -0.4528 0.6161, -0.1711 -0.4515 0.6161, -0.1697 -0.4497 0.6161, -0.1772 -0.4498 0.6176, -0.176 -0.4496 0.6176, -0.9178 -0.4503 0.6175, -0.9178 -0.4549 0.6156, -0.9178 -0.4503 0.6175, -0.9178 -0.4454 0.6181, -0.9178 -0.455 0.6156, -0.9178 -0.4589 0.6127, -0.9178 -0.459 0.6126, -0.9178 -0.4621 0.6088, -0.9178 -0.4621 0.6088, -0.9178 -0.4641 0.6043, -0.9178 -0.4642 0.6042, -0.9178 -0.465 0.5995, -0.9229 -0.4644 0.5997, -0.9229 -0.4644 0.5997, -0.9276 -0.4624 0.5998, -0.9276 -0.4624 0.5998, -0.9317 -0.4593 0.5999, -0.9348 -0.4552 0.5998, -0.9348 -0.4552 0.5998, -0.9368 -0.4505 0.5997, -0.9368 -0.4505 0.5997, -0.9213 -0.4585 0.6126, -0.9203 -0.4547 0.6156, -0.9191 -0.4502 0.6175, -0.9203 -0.4497 0.6175, -0.9221 -0.4479 0.6175, -0.9213 -0.4489 0.6175, -0.9226 -0.4467 0.6175, -0.9227 -0.4636 0.6042, -0.9272 -0.4617 0.6042, -0.9311 -0.4587 0.6042, -0.9341 -0.4548 0.6042, -0.936 -0.4503 0.6042, -0.9366 -0.4454 0.6042, -0.9228 -0.4454 0.6175, -0.9226 -0.4537 0.6156, -0.9246 -0.4522 0.6156, -0.9261 -0.4502 0.6156, -0.9271 -0.4479 0.6156, -0.9228 -0.4454 0.6175, -0.9274 -0.4454 0.6156, -0.9274 -0.4454 0.6156, -0.9314 -0.4454 0.6127, -0.9246 -0.4572 0.6126, -0.9275 -0.455 0.6126, -0.9296 -0.4522 0.6126, -0.931 -0.4489 0.6126, -0.9222 -0.4616 0.6088, -0.9262 -0.4599 0.6088, -0.9297 -0.4572 0.6088, -0.9323 -0.4538 0.6088, -0.934 -0.4497 0.6088, -0.9314 -0.4454 0.6126, -0.9345 -0.4454 0.6088, -0.9346 -0.4454 0.6088, -0.9366 -0.4454 0.6043, -0.9178 0.4454 0.6181, -0.9228 0.4454 0.6175, -0.9366 0.4454 0.6042, -0.9366 0.4454 0.6043, -0.9346 0.4454 0.6088, -0.9345 0.4454 0.6088, -0.9314 0.4454 0.6126, -0.9314 0.4454 0.6127, -0.9274 0.4454 0.6156, -0.9274 0.4454 0.6156, -0.9228 0.4454 0.6175, -0.9368 0.4505 0.5997, -0.9368 0.4505 0.5997, -0.9348 0.4552 0.5998, -0.9348 0.4552 0.5998, -0.9317 0.4593 0.5999, -0.9276 0.4624 0.5998, -0.9276 0.4624 0.5998, -0.9229 0.4644 0.5997, -0.9229 0.4644 0.5997, -0.931 0.4489 0.6126, -0.9271 0.4479 0.6156, -0.9226 0.4467 0.6175, -0.9221 0.4479 0.6175, -0.9203 0.4497 0.6175, -0.9213 0.4489 0.6175, -0.9191 0.4502 0.6175, -0.936 0.4503 0.6042, -0.9341 0.4548 0.6042, -0.9311 0.4587 0.6042, -0.9272 0.4617 0.6042, -0.9227 0.4636 0.6042, -0.9178 0.4642 0.6042, -0.9178 0.4503 0.6175, -0.9261 0.4502 0.6156, -0.9246 0.4522 0.6156, -0.9226 0.4537 0.6156, -0.9203 0.4547 0.6156, -0.9178 0.4503 0.6175, -0.9178 0.4549 0.6156, -0.9178 0.455 0.6156, -0.9178 0.4589 0.6127, -0.9296 0.4522 0.6126, -0.9275 0.455 0.6126, -0.9246 0.4572 0.6126, -0.9213 0.4585 0.6126, -0.934 0.4497 0.6088, -0.9323 0.4538 0.6088, -0.9297 0.4572 0.6088, -0.9262 0.4599 0.6088, -0.9222 0.4616 0.6088, -0.9178 0.459 0.6126, -0.9178 0.4621 0.6088, -0.9178 0.4621 0.6088, -0.9178 0.4641 0.6043, -0.1772 0.464 0.6043, -0.1772 0.462 0.6088, -0.1772 0.4608 0.6106, -0.1772 0.4589 0.6126, -0.1772 0.4577 0.6138, -0.1772 0.4549 0.6156, -0.1772 0.454 0.6161, -0.1772 0.4503 0.6174, -0.1772 0.4498 0.6176, -0.1772 0.4632 0.6068, -0.1772 0.4646 0.6027, -0.1732 0.4603 0.6106, -0.1749 0.4537 0.6161, -0.176 0.4496 0.6176, -0.175 0.4492 0.6176, -0.1729 0.4465 0.6176, -0.1733 0.4476 0.6176, -0.1722 0.464 0.6027, -0.1676 0.462 0.6027, -0.1636 0.459 0.6027, -0.1605 0.455 0.6027, -0.1586 0.4504 0.6027, -0.1729 0.4528 0.6161, -0.174 0.4485 0.6176, -0.1711 0.4515 0.6161, -0.1697 0.4497 0.6161, -0.1689 0.4476 0.6161, -0.174 0.4573 0.6138, -0.171 0.4561 0.6138, -0.1684 0.4541 0.6138, -0.1665 0.4516 0.6138, -0.1653 0.4486 0.6138, -0.1622 0.4494 0.6106, -0.1638 0.4531 0.6106, -0.1662 0.4563 0.6106, -0.1694 0.4588 0.6106, -0.1726 0.4626 0.6068, -0.1683 0.4608 0.6068, -0.1646 0.458 0.6068, -0.1618 0.4543 0.6068, -0.16 0.45 0.6068
            ]
        }
        coordIndex [
            0,1,2,-1,3,4,5,-1,0,2,6,-1,7,8,9,-1,9,8,10,-1,9,10,11,-1,11,10,12,-1,3,5,13,-1,4,14,5,-1,5,14,15,-1,5,15,2,-1,2,15,16,-1,17,18,5,-1,5,18,19,-1,20,21,9,-1,9,21,22,-1,9,22,7,-1,16,23,2,-1,2,23,24,-1,2,24,25,-1,17,26,18,-1,18,26,27,-1,18,27,28,-1,19,29,5,-1,5,29,30,-1,5,30,31,-1,1,32,2,-1,2,32,33,-1,2,33,9,-1,9,33,34,-1,9,34,20,-1,25,35,2,-1,2,35,36,-1,2,36,6,-1,31,37,5,-1,5,37,38,-1,5,38,13,-1,28,39,18,-1,18,39,40,-1,18,40,41,-1,42,43,44,-1,44,43,45,-1,46,34,47,-1,47,34,33,-1,48,49,15,-1,15,49,16,-1,50,51,52,-1,52,51,53,-1,54,55,56,-1,57,58,59,-1,59,58,60,-1,61,62,63,-1,54,56,64,-1,61,63,65,-1,66,67,68,-1,68,67,69,-1,69,70,68,-1,68,70,71,-1,68,71,56,-1,56,71,72,-1,56,72,64,-1,60,73,59,-1,59,73,74,-1,59,74,63,-1,63,74,75,-1,63,75,65,-1,55,76,56,-1,56,76,77,-1,56,77,59,-1,59,77,78,-1,59,78,57,-1,62,79,63,-1,63,79,80,-1,63,80,68,-1,68,80,81,-1,68,81,66,-1,82,83,56,-1,56,83,68,-1,84,85,86,-1,86,85,87,-1,84,88,85,-1,85,88,89,-1,85,89,90,-1,91,92,93,-1,93,92,94,-1,93,94,95,-1,90,96,85,-1,85,96,97,-1,85,97,98,-1,94,99,95,-1,95,99,100,-1,95,100,101,-1,101,100,102,-1,101,102,103,-1,103,102,104,-1,103,104,105,-1,106,107,91,-1,91,107,108,-1,91,108,92,-1,97,109,98,-1,98,109,110,-1,98,110,111,-1,111,110,112,-1,104,113,105,-1,105,113,114,-1,105,114,115,-1,115,114,116,-1,115,116,112,-1,112,116,117,-1,112,117,111,-1,118,119,120,-1,120,119,121,-1,120,121,122,-1,122,121,123,-1,122,123,106,-1,106,123,124,-1,106,124,107,-1,125,126,84,-1,84,126,127,-1,84,127,88,-1,120,128,118,-1,118,128,129,-1,118,129,84,-1,84,129,130,-1,84,130,125,-1,131,132,133,-1,133,132,51,-1,133,51,50,-1,133,134,131,-1,131,134,135,-1,131,135,136,-1,135,137,136,-1,136,137,138,-1,136,138,139,-1,139,138,140,-1,140,141,139,-1,139,141,142,-1,139,142,143,-1,142,144,143,-1,143,144,145,-1,143,145,146,-1,146,145,147,-1,146,147,148,-1,148,147,84,-1,148,84,86,-1,87,85,17,-1,17,85,149,-1,17,149,26,-1,26,149,27,-1,149,150,27,-1,27,150,151,-1,27,151,28,-1,28,151,152,-1,152,153,28,-1,28,153,154,-1,28,154,39,-1,154,155,39,-1,39,155,156,-1,39,156,40,-1,156,157,40,-1,40,157,158,-1,40,158,41,-1,158,159,41,-1,41,159,160,-1,41,160,18,-1,161,162,163,-1,164,165,166,-1,167,168,169,-1,169,168,170,-1,169,170,171,-1,169,172,167,-1,167,172,173,-1,167,173,174,-1,173,175,174,-1,174,175,176,-1,174,176,177,-1,176,178,177,-1,177,178,179,-1,177,179,165,-1,165,179,180,-1,165,180,166,-1,164,166,162,-1,162,166,181,-1,162,181,163,-1,161,163,59,-1,59,163,182,-1,59,182,56,-1,183,184,185,-1,82,56,186,-1,186,56,187,-1,186,187,188,-1,188,187,183,-1,183,187,189,-1,183,189,184,-1,190,191,192,-1,192,191,193,-1,192,193,194,-1,194,193,195,-1,194,195,185,-1,185,195,196,-1,185,196,183,-1,197,198,199,-1,199,198,200,-1,199,200,190,-1,190,200,201,-1,190,201,191,-1,34,46,20,-1,20,46,202,-1,20,202,21,-1,21,202,203,-1,21,203,22,-1,22,203,204,-1,22,204,7,-1,7,204,8,-1,8,204,205,-1,8,205,10,-1,205,206,10,-1,10,206,207,-1,10,207,12,-1,12,207,208,-1,12,208,11,-1,11,208,209,-1,11,209,9,-1,9,209,68,-1,9,68,83,-1,63,68,210,-1,63,210,211,-1,211,210,212,-1,211,212,213,-1,213,212,214,-1,213,214,215,-1,215,214,216,-1,215,216,217,-1,217,216,218,-1,217,218,219,-1,219,218,220,-1,219,220,221,-1,220,222,221,-1,221,222,223,-1,221,223,224,-1,223,225,224,-1,224,225,226,-1,224,226,227,-1,227,226,228,-1,228,229,227,-1,227,229,230,-1,227,230,231,-1,232,233,234,-1,234,233,171,-1,169,171,233,-1,187,235,189,-1,189,235,236,-1,189,236,184,-1,184,236,185,-1,185,236,237,-1,185,237,194,-1,194,237,238,-1,194,238,192,-1,192,238,190,-1,190,238,239,-1,190,239,199,-1,199,239,240,-1,199,240,197,-1,176,175,232,-1,232,175,173,-1,232,173,233,-1,233,173,172,-1,233,172,169,-1,171,241,242,-1,242,241,243,-1,244,171,242,-1,245,246,247,-1,247,246,244,-1,247,244,248,-1,248,244,242,-1,248,242,249,-1,249,242,243,-1,250,245,251,-1,251,245,247,-1,251,247,252,-1,252,247,248,-1,252,248,253,-1,253,248,249,-1,253,249,254,-1,166,180,255,-1,255,180,179,-1,243,256,249,-1,249,256,257,-1,249,257,254,-1,254,257,258,-1,254,258,259,-1,259,260,254,-1,254,260,261,-1,254,261,253,-1,253,261,262,-1,253,262,252,-1,252,262,263,-1,252,263,251,-1,251,263,255,-1,251,255,250,-1,250,255,179,-1,250,179,178,-1,163,181,264,-1,264,181,166,-1,166,255,264,-1,264,255,263,-1,264,263,265,-1,265,263,262,-1,265,262,266,-1,266,262,261,-1,266,261,267,-1,267,261,260,-1,267,260,268,-1,246,171,244,-1,178,176,250,-1,250,176,232,-1,250,232,245,-1,245,232,234,-1,245,234,246,-1,246,234,171,-1,163,235,182,-1,182,235,187,-1,182,187,56,-1,259,269,260,-1,260,269,270,-1,260,270,268,-1,268,270,271,-1,268,271,272,-1,163,264,235,-1,235,264,265,-1,235,265,236,-1,236,265,266,-1,236,266,237,-1,237,266,267,-1,237,267,238,-1,238,267,268,-1,238,268,239,-1,239,268,272,-1,239,272,240,-1,273,274,257,-1,273,257,275,-1,257,256,275,-1,275,256,243,-1,275,243,276,-1,276,243,241,-1,276,241,171,-1,277,278,259,-1,277,259,274,-1,274,259,258,-1,274,258,257,-1,279,280,270,-1,279,270,278,-1,278,270,269,-1,278,269,259,-1,281,282,272,-1,281,272,280,-1,280,272,271,-1,280,271,270,-1,283,284,197,-1,283,197,282,-1,282,197,240,-1,282,240,272,-1,284,285,286,-1,286,285,287,-1,287,285,288,-1,288,285,289,-1,288,289,290,-1,290,289,291,-1,290,291,292,-1,292,291,293,-1,292,293,294,-1,294,293,295,-1,294,295,296,-1,296,295,297,-1,296,297,298,-1,298,297,299,-1,298,299,300,-1,300,299,301,-1,300,301,302,-1,301,303,302,-1,302,303,45,-1,302,45,43,-1,280,279,304,-1,305,306,307,-1,276,308,309,-1,310,308,276,-1,307,306,276,-1,275,276,306,-1,311,289,285,-1,289,311,291,-1,291,311,312,-1,291,312,293,-1,293,312,313,-1,293,313,295,-1,295,313,314,-1,295,314,297,-1,297,314,299,-1,299,314,315,-1,299,315,301,-1,301,315,303,-1,303,315,316,-1,303,316,45,-1,317,310,276,-1,278,277,305,-1,305,277,274,-1,305,274,306,-1,306,274,273,-1,306,273,275,-1,318,309,319,-1,319,309,308,-1,319,308,320,-1,320,308,310,-1,320,310,321,-1,317,322,310,-1,310,322,323,-1,310,323,321,-1,321,323,324,-1,321,324,325,-1,304,318,326,-1,326,318,319,-1,326,319,327,-1,327,319,320,-1,327,320,328,-1,328,320,321,-1,328,321,329,-1,329,321,325,-1,282,281,330,-1,330,281,280,-1,280,304,330,-1,330,304,326,-1,330,326,331,-1,331,326,327,-1,331,327,332,-1,332,327,328,-1,332,328,333,-1,333,328,329,-1,333,329,334,-1,279,278,304,-1,304,278,305,-1,304,305,318,-1,318,305,307,-1,318,307,309,-1,309,307,276,-1,282,311,283,-1,283,311,285,-1,283,285,284,-1,325,335,329,-1,329,335,336,-1,329,336,334,-1,334,336,337,-1,334,337,338,-1,282,330,311,-1,311,330,331,-1,311,331,312,-1,312,331,332,-1,312,332,313,-1,313,332,333,-1,313,333,314,-1,314,333,334,-1,314,334,315,-1,315,334,338,-1,315,338,316,-1,276,339,340,-1,44,45,341,-1,341,45,316,-1,341,316,342,-1,342,316,338,-1,342,338,343,-1,343,338,337,-1,343,337,344,-1,344,337,336,-1,344,336,345,-1,345,336,335,-1,345,335,346,-1,346,335,325,-1,346,325,347,-1,347,325,324,-1,347,324,348,-1,348,324,323,-1,348,323,349,-1,349,323,322,-1,349,322,340,-1,340,322,317,-1,340,317,276,-1,42,44,350,-1,42,350,351,-1,351,350,352,-1,351,352,353,-1,353,352,354,-1,353,354,355,-1,355,354,356,-1,355,356,357,-1,357,356,358,-1,357,358,359,-1,359,358,360,-1,359,360,361,-1,361,360,362,-1,361,362,363,-1,363,362,364,-1,363,364,365,-1,365,364,366,-1,365,366,367,-1,367,366,368,-1,367,368,53,-1,53,368,369,-1,53,369,52,-1,342,343,370,-1,344,345,371,-1,372,373,374,-1,339,375,376,-1,377,375,339,-1,374,373,339,-1,340,339,373,-1,350,378,352,-1,352,378,379,-1,352,379,354,-1,354,379,356,-1,356,379,380,-1,356,380,358,-1,358,380,360,-1,360,380,381,-1,360,381,362,-1,362,381,364,-1,364,381,382,-1,364,382,366,-1,366,382,368,-1,368,382,383,-1,368,383,369,-1,369,383,384,-1,369,384,52,-1,385,377,339,-1,346,347,372,-1,372,347,348,-1,372,348,373,-1,373,348,349,-1,373,349,340,-1,386,376,387,-1,387,376,375,-1,387,375,388,-1,388,375,377,-1,388,377,389,-1,345,346,371,-1,371,346,372,-1,371,372,390,-1,390,372,374,-1,390,374,391,-1,391,374,339,-1,385,392,377,-1,377,392,393,-1,377,393,389,-1,389,393,394,-1,389,394,395,-1,396,386,397,-1,397,386,387,-1,397,387,398,-1,398,387,388,-1,398,388,399,-1,399,388,389,-1,399,389,400,-1,400,389,395,-1,370,396,401,-1,401,396,397,-1,401,397,402,-1,402,397,398,-1,402,398,403,-1,403,398,399,-1,403,399,404,-1,404,399,400,-1,404,400,405,-1,343,344,370,-1,370,344,371,-1,370,371,396,-1,396,371,390,-1,396,390,386,-1,386,390,391,-1,386,391,376,-1,376,391,339,-1,350,44,378,-1,378,44,341,-1,378,341,342,-1,395,406,400,-1,400,406,407,-1,400,407,405,-1,405,407,408,-1,405,408,409,-1,342,370,378,-1,378,370,401,-1,378,401,379,-1,379,401,402,-1,379,402,380,-1,380,402,403,-1,380,403,381,-1,381,403,404,-1,381,404,382,-1,382,404,405,-1,382,405,383,-1,383,405,409,-1,383,409,384,-1,409,408,410,-1,410,408,407,-1,410,407,411,-1,411,407,406,-1,411,406,412,-1,412,406,395,-1,412,395,413,-1,413,395,394,-1,413,394,414,-1,414,394,393,-1,414,393,415,-1,415,393,392,-1,415,392,416,-1,416,392,385,-1,416,385,417,-1,417,385,339,-1,417,339,418,-1,50,52,419,-1,419,52,384,-1,419,384,420,-1,420,384,409,-1,420,409,421,-1,421,409,410,-1,422,423,418,-1,424,425,418,-1,416,417,423,-1,423,417,418,-1,425,422,418,-1,414,415,426,-1,412,413,427,-1,428,429,430,-1,133,50,419,-1,431,135,432,-1,432,135,134,-1,432,134,133,-1,141,140,433,-1,433,140,138,-1,433,138,431,-1,431,138,137,-1,431,137,135,-1,141,433,142,-1,142,433,434,-1,142,434,144,-1,144,434,430,-1,144,430,145,-1,145,430,147,-1,147,430,429,-1,147,429,84,-1,435,436,437,-1,437,436,428,-1,428,430,437,-1,437,430,434,-1,437,434,438,-1,438,434,433,-1,438,433,439,-1,439,433,431,-1,439,431,440,-1,440,431,432,-1,440,432,441,-1,442,443,444,-1,444,443,435,-1,133,419,432,-1,432,419,420,-1,432,420,441,-1,441,420,421,-1,441,421,410,-1,435,437,444,-1,444,437,438,-1,444,438,445,-1,445,438,439,-1,445,439,446,-1,446,439,440,-1,446,440,447,-1,447,440,441,-1,447,441,448,-1,448,441,410,-1,448,410,411,-1,449,450,451,-1,451,450,442,-1,442,444,451,-1,451,444,445,-1,451,445,452,-1,452,445,446,-1,452,446,453,-1,453,446,447,-1,453,447,454,-1,454,447,448,-1,454,448,427,-1,427,448,411,-1,427,411,412,-1,455,456,457,-1,457,456,449,-1,449,451,457,-1,457,451,452,-1,457,452,458,-1,458,452,453,-1,458,453,459,-1,459,453,454,-1,459,454,460,-1,460,454,427,-1,460,427,426,-1,426,427,413,-1,426,413,414,-1,418,461,462,-1,462,461,455,-1,424,418,462,-1,455,457,462,-1,462,457,458,-1,462,458,424,-1,424,458,459,-1,424,459,425,-1,425,459,460,-1,425,460,422,-1,422,460,426,-1,422,426,423,-1,423,426,415,-1,423,415,416,-1,418,463,461,-1,461,463,464,-1,461,464,455,-1,455,464,465,-1,455,465,456,-1,456,465,466,-1,456,466,449,-1,449,466,467,-1,449,467,450,-1,450,467,468,-1,450,468,442,-1,442,468,469,-1,442,469,443,-1,443,469,470,-1,443,470,435,-1,435,470,471,-1,435,471,436,-1,436,471,472,-1,436,472,428,-1,428,472,473,-1,428,473,429,-1,429,473,474,-1,429,474,84,-1,84,474,118,-1,465,464,475,-1,464,463,476,-1,464,476,475,-1,475,476,477,-1,475,477,478,-1,478,477,479,-1,478,479,480,-1,480,479,481,-1,480,481,482,-1,482,481,483,-1,482,483,484,-1,484,483,485,-1,484,485,486,-1,486,485,487,-1,486,487,488,-1,488,487,489,-1,488,489,490,-1,490,489,491,-1,490,491,492,-1,467,466,493,-1,493,466,465,-1,465,475,493,-1,493,475,478,-1,493,478,494,-1,494,478,480,-1,494,480,495,-1,495,480,482,-1,495,482,496,-1,496,482,484,-1,496,484,497,-1,497,484,486,-1,497,486,498,-1,498,486,488,-1,498,488,499,-1,499,488,490,-1,499,490,500,-1,500,490,492,-1,500,492,501,-1,469,468,502,-1,502,468,467,-1,467,493,502,-1,502,493,494,-1,502,494,503,-1,503,494,495,-1,503,495,504,-1,504,495,496,-1,504,496,505,-1,505,496,497,-1,505,497,506,-1,506,497,498,-1,506,498,507,-1,507,498,499,-1,507,499,508,-1,508,499,500,-1,508,500,509,-1,509,500,501,-1,509,501,510,-1,471,470,511,-1,511,470,469,-1,469,502,511,-1,511,502,503,-1,511,503,512,-1,512,503,504,-1,512,504,513,-1,513,504,505,-1,513,505,514,-1,514,505,506,-1,514,506,515,-1,515,506,507,-1,515,507,516,-1,516,507,508,-1,516,508,517,-1,517,508,509,-1,517,509,518,-1,518,509,510,-1,518,510,519,-1,473,472,520,-1,520,472,471,-1,471,511,520,-1,520,511,512,-1,520,512,521,-1,521,512,513,-1,521,513,522,-1,522,513,514,-1,522,514,523,-1,523,514,515,-1,523,515,524,-1,524,515,516,-1,524,516,525,-1,525,516,517,-1,525,517,526,-1,526,517,518,-1,526,518,527,-1,527,518,519,-1,527,519,528,-1,118,474,529,-1,529,474,473,-1,473,520,529,-1,529,520,521,-1,529,521,530,-1,530,521,522,-1,530,522,531,-1,531,522,523,-1,531,523,532,-1,532,523,524,-1,532,524,533,-1,533,524,525,-1,533,525,534,-1,534,525,526,-1,534,526,535,-1,535,526,527,-1,535,527,536,-1,536,527,528,-1,536,528,537,-1,118,529,119,-1,119,529,530,-1,119,530,121,-1,121,530,531,-1,121,531,123,-1,123,531,532,-1,123,532,124,-1,124,532,533,-1,124,533,107,-1,107,533,534,-1,107,534,108,-1,108,534,535,-1,108,535,92,-1,92,535,536,-1,92,536,94,-1,94,536,537,-1,94,537,99,-1,99,537,538,-1,537,528,539,-1,528,519,540,-1,510,501,541,-1,492,491,542,-1,492,542,543,-1,543,542,544,-1,543,544,545,-1,545,544,546,-1,545,546,547,-1,547,546,548,-1,547,548,549,-1,549,548,550,-1,549,550,551,-1,551,550,552,-1,551,552,553,-1,553,552,554,-1,553,554,555,-1,555,554,556,-1,555,556,557,-1,556,558,557,-1,557,558,559,-1,557,559,560,-1,560,561,557,-1,557,561,562,-1,557,562,555,-1,555,562,563,-1,555,563,553,-1,553,563,564,-1,553,564,551,-1,551,564,565,-1,551,565,549,-1,549,565,566,-1,549,566,547,-1,547,566,567,-1,547,567,545,-1,545,567,541,-1,545,541,543,-1,543,541,501,-1,543,501,492,-1,510,541,568,-1,568,541,567,-1,568,567,569,-1,569,567,566,-1,569,566,570,-1,570,566,565,-1,570,565,571,-1,571,565,564,-1,571,564,572,-1,572,564,563,-1,572,563,573,-1,573,563,562,-1,573,562,574,-1,574,562,561,-1,574,561,575,-1,560,576,561,-1,561,576,577,-1,561,577,575,-1,575,577,578,-1,575,578,579,-1,579,580,575,-1,575,580,581,-1,575,581,574,-1,574,581,582,-1,574,582,573,-1,573,582,583,-1,573,583,572,-1,572,583,584,-1,572,584,571,-1,571,584,585,-1,571,585,570,-1,570,585,586,-1,570,586,569,-1,569,586,540,-1,569,540,568,-1,568,540,519,-1,568,519,510,-1,528,540,539,-1,539,540,586,-1,539,586,587,-1,587,586,585,-1,587,585,588,-1,588,585,584,-1,588,584,589,-1,589,584,583,-1,589,583,590,-1,590,583,582,-1,590,582,591,-1,591,582,581,-1,591,581,592,-1,592,581,580,-1,592,580,593,-1,579,594,580,-1,580,594,595,-1,580,595,593,-1,593,595,596,-1,593,596,597,-1,537,539,538,-1,538,539,587,-1,538,587,598,-1,598,587,588,-1,598,588,599,-1,599,588,589,-1,599,589,600,-1,600,589,590,-1,600,590,601,-1,601,590,591,-1,601,591,602,-1,602,591,592,-1,602,592,603,-1,603,592,593,-1,603,593,604,-1,604,593,597,-1,604,597,605,-1,99,538,100,-1,100,538,598,-1,100,598,102,-1,102,598,599,-1,102,599,104,-1,104,599,600,-1,104,600,113,-1,113,600,601,-1,113,601,114,-1,114,601,602,-1,114,602,116,-1,116,602,603,-1,116,603,117,-1,117,603,604,-1,117,604,111,-1,111,604,605,-1,111,605,98,-1,85,98,606,-1,606,98,605,-1,606,605,607,-1,607,605,597,-1,607,597,608,-1,608,597,596,-1,608,596,609,-1,609,596,595,-1,609,595,610,-1,610,595,594,-1,610,594,611,-1,611,594,579,-1,611,579,612,-1,612,579,578,-1,612,578,613,-1,613,578,577,-1,613,577,614,-1,614,577,576,-1,614,576,615,-1,615,576,560,-1,615,560,616,-1,616,560,559,-1,616,559,617,-1,617,559,558,-1,618,619,617,-1,620,621,617,-1,615,616,619,-1,619,616,617,-1,621,618,617,-1,613,614,622,-1,623,150,149,-1,150,623,151,-1,151,623,624,-1,151,624,152,-1,152,624,153,-1,153,624,625,-1,153,625,154,-1,154,625,155,-1,155,625,626,-1,155,626,156,-1,156,626,157,-1,157,626,627,-1,157,627,158,-1,158,627,159,-1,159,627,628,-1,159,628,160,-1,629,630,631,-1,631,630,632,-1,607,623,606,-1,606,623,149,-1,606,149,85,-1,607,633,623,-1,623,633,634,-1,623,634,624,-1,624,634,635,-1,624,635,625,-1,625,635,636,-1,625,636,626,-1,626,636,631,-1,626,631,627,-1,627,631,632,-1,627,632,628,-1,637,638,639,-1,639,638,629,-1,629,631,639,-1,639,631,636,-1,639,636,640,-1,640,636,635,-1,640,635,641,-1,641,635,634,-1,641,634,642,-1,642,634,633,-1,642,633,643,-1,644,645,646,-1,646,645,637,-1,607,608,633,-1,633,608,609,-1,633,609,643,-1,643,609,610,-1,643,610,611,-1,637,639,646,-1,646,639,640,-1,646,640,647,-1,647,640,641,-1,647,641,648,-1,648,641,642,-1,648,642,649,-1,649,642,643,-1,649,643,650,-1,650,643,611,-1,650,611,612,-1,651,652,653,-1,653,652,644,-1,644,646,653,-1,653,646,647,-1,653,647,654,-1,654,647,648,-1,654,648,655,-1,655,648,649,-1,655,649,656,-1,656,649,650,-1,656,650,622,-1,622,650,612,-1,622,612,613,-1,617,657,658,-1,658,657,651,-1,620,617,658,-1,651,653,658,-1,658,653,654,-1,658,654,620,-1,620,654,655,-1,620,655,621,-1,621,655,656,-1,621,656,618,-1,618,656,622,-1,618,622,619,-1,619,622,614,-1,619,614,615,-1,659,660,644,-1,659,644,661,-1,644,652,661,-1,661,652,651,-1,661,651,662,-1,662,651,657,-1,662,657,617,-1,663,664,637,-1,663,637,660,-1,660,637,645,-1,660,645,644,-1,665,666,629,-1,665,629,664,-1,664,629,638,-1,664,638,637,-1,667,668,632,-1,667,632,666,-1,666,632,630,-1,666,630,629,-1,669,670,160,-1,669,160,668,-1,668,160,628,-1,668,628,632,-1,670,671,19,-1,19,671,29,-1,29,671,30,-1,30,671,672,-1,30,672,31,-1,31,672,673,-1,31,673,37,-1,37,673,674,-1,37,674,38,-1,38,674,675,-1,38,675,13,-1,13,675,676,-1,13,676,3,-1,3,676,677,-1,3,677,4,-1,4,677,678,-1,4,678,14,-1,678,679,14,-1,14,679,48,-1,14,48,15,-1,666,665,680,-1,681,682,683,-1,662,684,685,-1,686,684,662,-1,683,682,662,-1,661,662,682,-1,687,672,671,-1,672,687,673,-1,673,687,688,-1,673,688,674,-1,674,688,689,-1,674,689,675,-1,675,689,690,-1,675,690,676,-1,676,690,677,-1,677,690,691,-1,677,691,678,-1,678,691,679,-1,679,691,692,-1,679,692,48,-1,693,686,662,-1,664,663,681,-1,681,663,660,-1,681,660,682,-1,682,660,659,-1,682,659,661,-1,694,685,695,-1,695,685,684,-1,695,684,696,-1,696,684,686,-1,696,686,697,-1,693,698,686,-1,686,698,699,-1,686,699,697,-1,697,699,700,-1,697,700,701,-1,680,694,702,-1,702,694,695,-1,702,695,703,-1,703,695,696,-1,703,696,704,-1,704,696,697,-1,704,697,705,-1,705,697,701,-1,668,667,706,-1,706,667,666,-1,666,680,706,-1,706,680,702,-1,706,702,707,-1,707,702,703,-1,707,703,708,-1,708,703,704,-1,708,704,709,-1,709,704,705,-1,709,705,710,-1,665,664,680,-1,680,664,681,-1,680,681,694,-1,694,681,683,-1,694,683,685,-1,685,683,662,-1,668,687,669,-1,669,687,671,-1,669,671,670,-1,701,711,705,-1,705,711,712,-1,705,712,710,-1,710,712,713,-1,710,713,714,-1,668,706,687,-1,687,706,707,-1,687,707,688,-1,688,707,708,-1,688,708,689,-1,689,708,709,-1,689,709,690,-1,690,709,710,-1,690,710,691,-1,691,710,714,-1,691,714,692,-1,662,715,716,-1,49,48,717,-1,717,48,692,-1,717,692,718,-1,718,692,714,-1,718,714,719,-1,719,714,713,-1,719,713,720,-1,720,713,712,-1,720,712,721,-1,721,712,711,-1,721,711,722,-1,722,711,701,-1,722,701,723,-1,723,701,700,-1,723,700,724,-1,724,700,699,-1,724,699,725,-1,725,699,698,-1,725,698,716,-1,716,698,693,-1,716,693,662,-1,49,726,16,-1,16,726,23,-1,23,726,24,-1,24,726,727,-1,24,727,25,-1,25,727,728,-1,25,728,35,-1,35,728,729,-1,35,729,36,-1,36,729,730,-1,36,730,6,-1,6,730,731,-1,6,731,0,-1,0,731,732,-1,0,732,1,-1,1,732,733,-1,1,733,32,-1,733,734,32,-1,32,734,47,-1,32,47,33,-1,720,721,735,-1,736,737,738,-1,715,739,740,-1,741,739,715,-1,738,737,715,-1,716,715,737,-1,742,727,726,-1,727,742,728,-1,728,742,743,-1,728,743,729,-1,729,743,744,-1,729,744,730,-1,730,744,745,-1,730,745,731,-1,731,745,732,-1,732,745,746,-1,732,746,733,-1,733,746,734,-1,734,746,747,-1,734,747,47,-1,748,741,715,-1,722,723,736,-1,736,723,724,-1,736,724,737,-1,737,724,725,-1,737,725,716,-1,749,740,750,-1,750,740,739,-1,750,739,751,-1,751,739,741,-1,751,741,752,-1,748,753,741,-1,741,753,754,-1,741,754,752,-1,752,754,755,-1,752,755,756,-1,735,749,757,-1,757,749,750,-1,757,750,758,-1,758,750,751,-1,758,751,759,-1,759,751,752,-1,759,752,760,-1,760,752,756,-1,718,719,761,-1,761,719,720,-1,720,735,761,-1,761,735,757,-1,761,757,762,-1,762,757,758,-1,762,758,763,-1,763,758,759,-1,763,759,764,-1,764,759,760,-1,764,760,765,-1,721,722,735,-1,735,722,736,-1,735,736,749,-1,749,736,738,-1,749,738,740,-1,740,738,715,-1,718,742,717,-1,717,742,726,-1,717,726,49,-1,756,766,760,-1,760,766,767,-1,760,767,765,-1,765,767,768,-1,765,768,769,-1,718,761,742,-1,742,761,762,-1,742,762,743,-1,743,762,763,-1,743,763,744,-1,744,763,764,-1,744,764,745,-1,745,764,765,-1,745,765,746,-1,746,765,769,-1,746,769,747,-1,747,769,770,-1,768,767,771,-1,771,767,772,-1,772,767,766,-1,772,766,773,-1,773,766,756,-1,773,756,774,-1,774,756,755,-1,774,755,775,-1,775,755,754,-1,775,754,776,-1,776,754,753,-1,776,753,777,-1,777,753,748,-1,777,748,778,-1,778,748,715,-1,778,715,230,-1,768,771,769,-1,769,771,779,-1,769,779,770,-1,747,770,47,-1,47,770,780,-1,47,780,46,-1,771,772,781,-1,782,783,784,-1,230,785,786,-1,784,783,230,-1,778,230,783,-1,202,787,203,-1,203,787,788,-1,203,788,204,-1,204,788,789,-1,204,789,205,-1,205,789,206,-1,206,789,790,-1,206,790,207,-1,207,790,791,-1,207,791,208,-1,208,791,209,-1,209,791,210,-1,209,210,68,-1,230,229,785,-1,785,229,228,-1,785,228,226,-1,792,793,794,-1,794,793,786,-1,794,786,795,-1,795,786,785,-1,795,785,796,-1,796,785,226,-1,774,775,782,-1,782,775,776,-1,782,776,783,-1,783,776,777,-1,783,777,778,-1,797,792,798,-1,798,792,794,-1,798,794,799,-1,799,794,795,-1,799,795,800,-1,800,795,796,-1,800,796,801,-1,226,225,796,-1,796,225,223,-1,796,223,801,-1,801,223,222,-1,801,222,220,-1,220,802,801,-1,801,802,803,-1,801,803,800,-1,800,803,804,-1,800,804,799,-1,799,804,805,-1,799,805,798,-1,798,805,781,-1,798,781,797,-1,797,781,772,-1,797,772,773,-1,770,779,806,-1,806,779,771,-1,771,781,806,-1,806,781,805,-1,806,805,807,-1,807,805,804,-1,807,804,808,-1,808,804,803,-1,808,803,809,-1,809,803,802,-1,809,802,810,-1,793,230,786,-1,773,774,797,-1,797,774,782,-1,797,782,792,-1,792,782,784,-1,792,784,793,-1,793,784,230,-1,202,46,787,-1,787,46,780,-1,787,780,770,-1,220,218,802,-1,802,218,216,-1,802,216,810,-1,810,216,214,-1,810,214,212,-1,770,806,787,-1,787,806,807,-1,787,807,788,-1,788,807,808,-1,788,808,789,-1,789,808,809,-1,789,809,790,-1,790,809,810,-1,790,810,791,-1,791,810,212,-1,791,212,210,-1,231,170,168,-1,231,168,227,-1,227,168,167,-1,227,167,224,-1,224,167,174,-1,224,174,221,-1,221,174,177,-1,221,177,219,-1,219,177,165,-1,219,165,217,-1,217,165,215,-1,215,165,164,-1,215,164,213,-1,161,59,63,-1,164,162,213,-1,213,162,161,-1,213,161,211,-1,211,161,63,-1,
        ]
    }
}
Shape{
    appearance Appearance {
        material  Material 	{
            diffuseColor 0.4392156862745098 0.4392156862745098 0.4392156862745098
            specularColor 0.2196078431372549 0.2196078431372549 0.2196078431372549
            ambientIntensity 0.4392
            transparency 0.0
            shininess 0.5
        }
    }
    geometry IndexedFaceSet {
        ccw TRUE
        solid FALSE
        coord DEF co Coordinate {
            point [
                0.1083 -0.3066 0.5945, 0.1083 -0.3066 0.5984, 0.1046 -0.2786 0.5945, 0.1046 -0.2786 0.5984, 0.0938 -0.2525 0.5945, 0.0938 -0.2525 0.5984, 0.0766 -0.23 0.5945, 0.0766 -0.23 0.5984, 0.0541 -0.2128 0.5945, 0.0541 -0.2128 0.5984, 0.028 -0.202 0.5945, 0.028 -0.202 0.5984, 0.0 -0.1983 0.5945, 0.0 -0.1983 0.5984, -0.028 -0.202 0.5945, -0.028 -0.202 0.5984, -0.0541 -0.2128 0.5945, -0.0541 -0.2128 0.5984, -0.0766 -0.23 0.5945, -0.0766 -0.23 0.5984, -0.0938 -0.2525 0.5945, -0.0938 -0.2525 0.5984, -0.1046 -0.2786 0.5945, -0.1046 -0.2786 0.5984, -0.1083 -0.3066 0.5945, -0.1083 -0.3066 0.5984, -0.1046 -0.3346 0.5945, -0.1046 -0.3346 0.5984, -0.0938 -0.3607 0.5945, -0.0938 -0.3607 0.5984, -0.0766 -0.3831 0.5945, -0.0766 -0.3831 0.5984, -0.0541 -0.4003 0.5945, -0.0541 -0.4003 0.5984, -0.028 -0.4112 0.5945, -0.028 -0.4112 0.5984, 0.0 -0.4149 0.5945, 0.0 -0.4149 0.5984, 0.028 -0.4112 0.5945, 0.028 -0.4112 0.5984, 0.0541 -0.4003 0.5945, 0.0541 -0.4003 0.5984, 0.0766 -0.3831 0.5945, 0.0766 -0.3831 0.5984, 0.0938 -0.3607 0.5945, 0.0938 -0.3607 0.5984, 0.1046 -0.3346 0.5945, 0.1046 -0.3346 0.5984, 0.0 -0.3066 0.5945, 0.1083 0.3071 0.5945, 0.1083 0.3071 0.5984, 0.1046 0.3351 0.5945, 0.1046 0.3351 0.5984, 0.0938 0.3612 0.5945, 0.0938 0.3612 0.5984, 0.0766 0.3836 0.5945, 0.0766 0.3836 0.5984, 0.0541 0.4008 0.5945, 0.0541 0.4008 0.5984, 0.028 0.4117 0.5945, 0.028 0.4117 0.5984, 0.0 0.4154 0.5945, 0.0 0.4154 0.5984, -0.028 0.4117 0.5945, -0.028 0.4117 0.5984, -0.0541 0.4008 0.5945, -0.0541 0.4008 0.5984, -0.0766 0.3836 0.5945, -0.0766 0.3836 0.5984, -0.0938 0.3612 0.5945, -0.0938 0.3612 0.5984, -0.1046 0.3351 0.5945, -0.1046 0.3351 0.5984, -0.1083 0.3071 0.5945, -0.1083 0.3071 0.5984, -0.1046 0.2791 0.5945, -0.1046 0.2791 0.5984, -0.0938 0.253 0.5945, -0.0938 0.253 0.5984, -0.0766 0.2305 0.5945, -0.0766 0.2305 0.5984, -0.0541 0.2133 0.5945, -0.0541 0.2133 0.5984, -0.028 0.2025 0.5945, -0.028 0.2025 0.5984, 0.0 0.1988 0.5945, 0.0 0.1988 0.5984, 0.028 0.2025 0.5945, 0.028 0.2025 0.5984, 0.0541 0.2133 0.5945, 0.0541 0.2133 0.5984, 0.0766 0.2305 0.5945, 0.0766 0.2305 0.5984, 0.0938 0.253 0.5945, 0.0938 0.253 0.5984, 0.1046 0.2791 0.5945, 0.1046 0.2791 0.5984, 0.0 0.3071 0.5945
            ]
        }
        coordIndex [
            0,1,2,-1,2,1,3,-1,2,3,4,-1,4,3,5,-1,4,5,6,-1,6,5,7,-1,6,7,8,-1,8,7,9,-1,8,9,10,-1,10,9,11,-1,10,11,12,-1,12,11,13,-1,12,13,14,-1,14,13,15,-1,14,15,16,-1,16,15,17,-1,16,17,18,-1,18,17,19,-1,18,19,20,-1,20,19,21,-1,20,21,22,-1,22,21,23,-1,22,23,24,-1,24,23,25,-1,24,25,26,-1,26,25,27,-1,26,27,28,-1,28,27,29,-1,28,29,30,-1,30,29,31,-1,30,31,32,-1,32,31,33,-1,32,33,34,-1,34,33,35,-1,34,35,36,-1,36,35,37,-1,36,37,38,-1,38,37,39,-1,38,39,40,-1,40,39,41,-1,40,41,42,-1,42,41,43,-1,42,43,44,-1,44,43,45,-1,44,45,46,-1,46,45,47,-1,46,47,0,-1,0,47,1,-1,44,46,48,-1,48,46,0,-1,48,0,2,-1,38,40,48,-1,48,40,42,-1,48,42,44,-1,32,34,48,-1,48,34,36,-1,48,36,38,-1,26,28,48,-1,48,28,30,-1,48,30,32,-1,20,22,48,-1,48,22,24,-1,48,24,26,-1,14,16,48,-1,48,16,18,-1,48,18,20,-1,8,10,48,-1,48,10,12,-1,48,12,14,-1,2,4,48,-1,48,4,6,-1,48,6,8,-1,49,50,51,-1,51,50,52,-1,51,52,53,-1,53,52,54,-1,53,54,55,-1,55,54,56,-1,55,56,57,-1,57,56,58,-1,57,58,59,-1,59,58,60,-1,59,60,61,-1,61,60,62,-1,61,62,63,-1,63,62,64,-1,63,64,65,-1,65,64,66,-1,65,66,67,-1,67,66,68,-1,67,68,69,-1,69,68,70,-1,69,70,71,-1,71,70,72,-1,71,72,73,-1,73,72,74,-1,73,74,75,-1,75,74,76,-1,75,76,77,-1,77,76,78,-1,77,78,79,-1,79,78,80,-1,79,80,81,-1,81,80,82,-1,81,82,83,-1,83,82,84,-1,83,84,85,-1,85,84,86,-1,85,86,87,-1,87,86,88,-1,87,88,89,-1,89,88,90,-1,89,90,91,-1,91,90,92,-1,91,92,93,-1,93,92,94,-1,93,94,95,-1,95,94,96,-1,95,96,49,-1,49,96,50,-1,93,95,97,-1,97,95,49,-1,97,49,51,-1,87,89,97,-1,97,89,91,-1,97,91,93,-1,81,83,97,-1,97,83,85,-1,97,85,87,-1,75,77,97,-1,97,77,79,-1,97,79,81,-1,69,71,97,-1,97,71,73,-1,97,73,75,-1,63,65,97,-1,97,65,67,-1,97,67,69,-1,57,59,97,-1,97,59,61,-1,97,61,63,-1,51,53,97,-1,97,53,55,-1,97,55,57,-1,
        ]
    }
}
Shape{
    appearance Appearance {
        material  Material 	{
            diffuseColor 0.2196078431372549 0.6862745098039216 0.0
            specularColor 0.10980392156862745 0.3411764705882353 0.0
            ambientIntensity 0.4685
            transparency 0.0
            shininess 0.5
        }
    }
    geometry IndexedFaceSet {
        ccw TRUE
        solid FALSE
        coord DEF co Coordinate {
            point [
                -0.1575 0.4724 0.0827, 0.1575 0.4724 0.0827, -0.1575 0.4724 0.0827, 0.1575 0.4724 0.0827, 0.9449 0.1575 0.0039, 0.9449 0.4724 0.0039, 0.9449 0.4724 0.0827, 0.9449 -0.4724 0.0827, 0.9449 -0.4724 0.0039, 0.9449 -0.4429 0.0039, 0.9449 -0.0541 0.0039, 0.9449 0.0455 0.0039, 0.9449 0.0723 0.0039, -0.1575 -0.4724 0.0827, -0.1128 -0.4724 0.0039, -0.0204 -0.4724 0.0039, 0.4724 -0.4724 0.0039, 0.1575 -0.4724 0.0827, 0.2049 -0.4724 0.0039, 0.1164 -0.4724 0.0039, 0.0516 -0.4724 0.0039, -0.9449 -0.4724 0.0039, -0.8366 -0.4724 0.0039, -0.9449 -0.4724 0.0827, -0.4724 -0.4724 0.0039, -0.2109 -0.4724 0.0039, -0.9449 -0.4429 0.0039, -0.9449 0.4724 0.0827, -0.9449 0.4724 0.0039, -0.9449 0.1575 0.0039, -0.9449 0.0723 0.0039, -0.9449 0.0455 0.0039, -0.9449 -0.0541 0.0039, 0.2049 0.4724 0.0039, 0.4724 0.4724 0.0039, -0.1128 0.4724 0.0039, -0.2109 0.4724 0.0039, -0.4724 0.4724 0.0039, -0.8366 0.4724 0.0039, 0.1164 0.4724 0.0039, 0.0516 0.4724 0.0039, -0.0204 0.4724 0.0039, 0.1575 -0.4724 0.0827, -0.1575 -0.4724 0.0827
            ]
        }
        coordIndex [
            0,1,2,-1,2,1,3,-1,4,5,6,-1,7,8,9,-1,9,10,7,-1,7,10,11,-1,7,11,6,-1,6,11,12,-1,6,12,4,-1,13,14,15,-1,8,7,16,-1,16,7,17,-1,16,17,18,-1,18,17,19,-1,13,15,17,-1,17,15,20,-1,17,20,19,-1,21,22,23,-1,23,22,24,-1,23,24,13,-1,13,24,25,-1,13,25,14,-1,26,21,23,-1,27,28,29,-1,29,30,27,-1,27,30,31,-1,27,31,23,-1,23,31,32,-1,23,32,26,-1,33,3,34,-1,34,3,6,-1,34,6,5,-1,35,36,2,-1,2,36,37,-1,2,37,27,-1,27,37,38,-1,27,38,28,-1,33,39,3,-1,3,39,40,-1,3,40,2,-1,2,40,41,-1,2,41,35,-1,42,43,17,-1,17,43,13,-1,
        ]
    }
}
Shape{
    appearance Appearance {
        material  Material 	{
            diffuseColor 0.6470588235294118 0.5176470588235295 0.0
            specularColor 0.45098039215686275 0.3607843137254902 0.0
            ambientIntensity 0.4973
            transparency 0.0
            shininess 0.5
        }
    }
    geometry IndexedFaceSet {
        ccw TRUE
        solid FALSE
        coord DEF co Coordinate {
            point [
                0.5315 -0.2165 0.0, 0.5315 -0.4134 0.0, 0.5315 -0.2165 0.0039, 0.5315 -0.4134 0.0039, 0.7598 -0.2165 0.0, 0.7598 -0.2165 0.0039, 0.7598 -0.315 0.0, 0.7598 -0.315 0.0039, 0.7283 -0.315 0.0, 0.7283 -0.315 0.0039, 0.7283 -0.4134 0.0, 0.7283 -0.4134 0.0039, 0.2165 -0.2165 0.0, 0.2165 -0.4134 0.0, 0.2165 -0.2165 0.0039, 0.2165 -0.4134 0.0039, 0.4134 -0.2165 0.0, 0.4134 -0.2165 0.0039, 0.4134 -0.4134 0.0, 0.4134 -0.4134 0.0039, -0.0984 -0.2165 0.0, -0.0984 -0.4134 0.0, -0.0984 -0.2165 0.0039, -0.0984 -0.4134 0.0039, 0.0516 -0.2165 0.0039, 0.0984 -0.2165 0.0039, 0.0984 -0.2165 0.0, -0.0204 -0.2165 0.0039, 0.0984 -0.4134 0.0, 0.0984 -0.4134 0.0039, 0.0516 -0.4134 0.0039, -0.0204 -0.4134 0.0039, -0.4134 -0.2165 0.0, -0.4134 -0.4134 0.0, -0.4134 -0.2165 0.0039, -0.4134 -0.4134 0.0039, -0.2165 -0.2165 0.0, -0.2165 -0.2165 0.0039, -0.2165 -0.4134 0.0, -0.2165 -0.4134 0.0039, -0.7283 -0.2165 0.0, -0.7283 -0.4134 0.0, -0.7283 -0.2165 0.0039, -0.7283 -0.4134 0.0039, -0.5315 -0.2165 0.0, -0.5315 -0.2165 0.0039, -0.5315 -0.4134 0.0, -0.5315 -0.4134 0.0039, 0.5315 -0.0984 0.0039, 0.5315 -0.0541 0.0039, 0.5315 -0.0984 0.0, 0.5315 0.0455 0.0039, 0.5315 0.0984 0.0, 0.5315 0.0723 0.0039, 0.5315 0.0984 0.0039, 0.7283 0.0984 0.0, 0.7283 0.0984 0.0039, 0.7283 0.0723 0.0039, 0.7283 0.0455 0.0039, 0.7283 -0.0984 0.0, 0.7283 -0.0541 0.0039, 0.7283 -0.0984 0.0039, -0.5315 0.2165 0.0, -0.5315 0.4134 0.0, -0.5315 0.2165 0.0039, -0.5315 0.4134 0.0039, -0.7283 0.2165 0.0, -0.7283 0.2165 0.0039, -0.7283 0.4134 0.0, -0.7283 0.4134 0.0039, -0.2165 0.2165 0.0, -0.2165 0.4134 0.0, -0.2165 0.2165 0.0039, -0.2165 0.4134 0.0039, -0.4134 0.2165 0.0, -0.4134 0.2165 0.0039, -0.4134 0.4134 0.0, -0.4134 0.4134 0.0039, 0.0984 0.2165 0.0, 0.0984 0.4134 0.0, 0.0984 0.2165 0.0039, 0.0984 0.4134 0.0039, 0.0516 0.2165 0.0039, -0.0204 0.2165 0.0039, -0.0984 0.2165 0.0, -0.0984 0.2165 0.0039, -0.0984 0.4134 0.0, -0.0984 0.4134 0.0039, 0.0516 0.4134 0.0039, -0.0204 0.4134 0.0039, 0.4134 0.2165 0.0, 0.4134 0.4134 0.0, 0.4134 0.2165 0.0039, 0.4134 0.4134 0.0039, 0.2165 0.2165 0.0, 0.2165 0.2165 0.0039, 0.2165 0.4134 0.0, 0.2165 0.4134 0.0039, 0.7283 0.2165 0.0, 0.7283 0.4134 0.0, 0.7283 0.2165 0.0039, 0.7283 0.4134 0.0039, 0.5315 0.2165 0.0, 0.5315 0.2165 0.0039, 0.5315 0.4134 0.0, 0.5315 0.4134 0.0039, -0.5315 0.0984 0.0039, -0.5315 0.0723 0.0039, -0.5315 0.0984 0.0, -0.5315 0.0455 0.0039, -0.5315 -0.0984 0.0, -0.5315 -0.0541 0.0039, -0.5315 -0.0984 0.0039, -0.7283 -0.0984 0.0, -0.7283 -0.0984 0.0039, -0.7283 -0.0541 0.0039, -0.7283 0.0455 0.0039, -0.7283 0.0984 0.0, -0.7283 0.0723 0.0039, -0.7283 0.0984 0.0039
            ]
        }
        coordIndex [
            0,1,2,-1,2,1,3,-1,4,0,5,-1,5,0,2,-1,6,4,7,-1,7,4,5,-1,8,6,9,-1,9,6,7,-1,10,8,11,-1,11,8,9,-1,1,10,3,-1,3,10,11,-1,10,1,8,-1,8,1,0,-1,8,0,6,-1,6,0,4,-1,12,13,14,-1,14,13,15,-1,16,12,17,-1,17,12,14,-1,18,16,19,-1,19,16,17,-1,13,18,15,-1,15,18,19,-1,16,18,12,-1,12,18,13,-1,20,21,22,-1,22,21,23,-1,24,25,26,-1,24,26,27,-1,27,26,20,-1,27,20,22,-1,28,26,29,-1,29,26,25,-1,29,30,28,-1,28,30,31,-1,28,31,21,-1,21,31,23,-1,26,28,20,-1,20,28,21,-1,32,33,34,-1,34,33,35,-1,36,32,37,-1,37,32,34,-1,38,36,39,-1,39,36,37,-1,33,38,35,-1,35,38,39,-1,36,38,32,-1,32,38,33,-1,40,41,42,-1,42,41,43,-1,44,40,45,-1,45,40,42,-1,46,44,47,-1,47,44,45,-1,41,46,43,-1,43,46,47,-1,44,46,40,-1,40,46,41,-1,48,49,50,-1,50,49,51,-1,50,51,52,-1,52,51,53,-1,52,53,54,-1,55,52,56,-1,56,52,54,-1,56,57,55,-1,55,57,58,-1,55,58,59,-1,59,58,60,-1,59,60,61,-1,50,59,48,-1,48,59,61,-1,55,59,52,-1,52,59,50,-1,62,63,64,-1,64,63,65,-1,66,62,67,-1,67,62,64,-1,68,66,69,-1,69,66,67,-1,63,68,65,-1,65,68,69,-1,66,68,62,-1,62,68,63,-1,70,71,72,-1,72,71,73,-1,74,70,75,-1,75,70,72,-1,76,74,77,-1,77,74,75,-1,71,76,73,-1,73,76,77,-1,74,76,70,-1,70,76,71,-1,78,79,80,-1,80,79,81,-1,80,82,78,-1,78,82,83,-1,78,83,84,-1,84,83,85,-1,86,84,87,-1,87,84,85,-1,88,81,79,-1,88,79,89,-1,89,79,86,-1,89,86,87,-1,84,86,78,-1,78,86,79,-1,90,91,92,-1,92,91,93,-1,94,90,95,-1,95,90,92,-1,96,94,97,-1,97,94,95,-1,91,96,93,-1,93,96,97,-1,94,96,90,-1,90,96,91,-1,98,99,100,-1,100,99,101,-1,102,98,103,-1,103,98,100,-1,104,102,105,-1,105,102,103,-1,99,104,101,-1,101,104,105,-1,102,104,98,-1,98,104,99,-1,106,107,108,-1,108,107,109,-1,108,109,110,-1,110,109,111,-1,110,111,112,-1,113,110,114,-1,114,110,112,-1,114,115,113,-1,113,115,116,-1,113,116,117,-1,117,116,118,-1,117,118,119,-1,108,117,106,-1,106,117,119,-1,113,117,110,-1,110,117,108,-1,
        ]
    }
}
Shape{
    appearance Appearance {
        material  Material 	{
            diffuseColor 1.0 1.0 1.0
            specularColor 0.5019607843137255 0.5019607843137255 0.5019607843137255
            ambientIntensity 1.0
            transparency 0.0
            shininess 0.5
        }
    }
    geometry IndexedFaceSet {
        ccw TRUE
        solid FALSE
        coord DEF co Coordinate {
            point [
                -0.1668 0.0449 0.0079, -0.2053 -0.0535 0.0079, -0.1668 0.0449 0.0039, -0.2053 -0.0535 0.0039, -0.1908 -0.0535 0.0079, -0.1908 -0.0535 0.0039, -0.1809 -0.0259 0.0079, -0.1809 -0.0259 0.0039, -0.1402 -0.0259 0.0079, -0.1402 -0.0259 0.0039, -0.1308 -0.0535 0.0079, -0.1308 -0.0535 0.0039, -0.1164 -0.0535 0.0079, -0.1164 -0.0535 0.0039, -0.1536 0.0449 0.0079, -0.1536 0.0449 0.0039, -0.1435 -0.0151 0.0079, -0.1765 -0.0151 0.0079, -0.1582 0.026 0.0079, -0.1592 0.0294 0.0079, -0.1598 0.0329 0.0079, -0.1601 0.0329 0.0079, -0.1608 0.0294 0.0079, -0.1616 0.026 0.0079, -0.1435 -0.0151 0.0039, -0.1765 -0.0151 0.0039, -0.1582 0.026 0.0039, -0.1592 0.0294 0.0039, -0.1598 0.0329 0.0039, -0.1601 0.0329 0.0039, -0.1608 0.0294 0.0039, -0.1616 0.026 0.0039, -0.0568 -0.0535 0.0079, -0.03 -0.0535 0.0079, -0.0568 -0.0535 0.0039, -0.03 -0.0535 0.0039, -0.03 0.0449 0.0079, -0.03 0.0449 0.0039, -0.0578 0.0449 0.0079, -0.0578 0.0449 0.0039, -0.1092 -0.0031 0.0079, -0.1092 -0.0031 0.0039, -0.1085 0.0062 0.0039, -0.1085 0.0062 0.0079, -0.1059 0.0159 0.0039, -0.1059 0.0159 0.0079, -0.1013 0.0243 0.0039, -0.1013 0.0243 0.0079, -0.0943 0.0321 0.0039, -0.0943 0.0321 0.0079, -0.0942 0.0322 0.0039, -0.0942 0.0322 0.0079, -0.0835 0.0393 0.0039, -0.0835 0.0393 0.0079, -0.072 0.0434 0.0039, -0.072 0.0434 0.0079, -0.0689 -0.0525 0.0039, -0.0689 -0.0525 0.0079, -0.0803 -0.0491 0.0039, -0.0803 -0.0491 0.0079, -0.0906 -0.0431 0.0039, -0.0906 -0.0431 0.0079, -0.0987 -0.0354 0.0039, -0.0987 -0.0354 0.0079, -0.1043 -0.0266 0.0039, -0.1043 -0.0266 0.0079, -0.1078 -0.0163 0.0039, -0.1078 -0.0163 0.0079, -0.0895 0.0203 0.0079, -0.0847 0.0254 0.0079, -0.0775 0.03 0.0079, -0.0694 0.0329 0.0079, -0.0577 0.0341 0.0079, -0.0432 0.0341 0.0079, -0.0432 -0.0427 0.0079, -0.0572 -0.0427 0.0079, -0.0676 -0.0418 0.0079, -0.0759 -0.0392 0.0079, -0.0826 -0.0352 0.0079, -0.0881 -0.0297 0.0079, -0.0922 -0.023 0.0079, -0.0951 -0.0137 0.0079, -0.096 -0.0034 0.0079, -0.0952 0.0064 0.0079, -0.0929 0.0142 0.0079, -0.0577 0.0341 0.0039, -0.0432 0.0341 0.0039, -0.0694 0.0329 0.0039, -0.0775 0.03 0.0039, -0.0847 0.0254 0.0039, -0.0895 0.0203 0.0039, -0.0929 0.0142 0.0039, -0.0952 0.0064 0.0039, -0.096 -0.0034 0.0039, -0.0951 -0.0137 0.0039, -0.0922 -0.023 0.0039, -0.0881 -0.0297 0.0039, -0.0826 -0.0352 0.0039, -0.0759 -0.0392 0.0039, -0.0676 -0.0418 0.0039, -0.0572 -0.0427 0.0039, -0.0432 -0.0427 0.0039, -0.0108 -0.0427 0.0079, -0.0108 -0.0535 0.0079, -0.0108 -0.0427 0.0039, -0.0108 -0.0535 0.0039, 0.042 -0.0535 0.0079, 0.042 -0.0535 0.0039, 0.042 0.0449 0.0079, 0.042 0.0449 0.0039, -0.0084 0.0449 0.0079, -0.0084 0.0449 0.0039, -0.0084 0.0341 0.0079, -0.0084 0.0341 0.0039, 0.0288 0.0341 0.0079, 0.0288 0.0341 0.0039, 0.0288 0.0017 0.0079, 0.0288 0.0017 0.0039, -0.006 0.0017 0.0079, -0.006 0.0017 0.0039, -0.006 -0.0091 0.0079, -0.006 -0.0091 0.0039, 0.0288 -0.0091 0.0079, 0.0288 -0.0091 0.0039, 0.0288 -0.0427 0.0079, 0.0288 -0.0427 0.0039, 0.0612 -0.0376 0.0079, 0.0612 -0.0484 0.0079, 0.0612 -0.0376 0.0039, 0.0612 -0.0484 0.0039, 0.0717 -0.0527 0.0079, 0.0883 -0.0547 0.0079, 0.0883 -0.0547 0.0039, 0.0856 -0.0547 0.0039, 0.0856 -0.0547 0.0079, 0.0817 -0.0541 0.0039, 0.0717 -0.0527 0.0039, 0.1004 -0.0535 0.0039, 0.1004 -0.0535 0.0079, 0.11 -0.0502 0.0079, 0.1344 -0.0062 0.0079, 0.1344 -0.0062 0.0039, 0.1335 -0.0176 0.0039, 0.1335 -0.0176 0.0079, 0.1305 -0.028 0.0039, 0.1305 -0.028 0.0079, 0.1253 -0.0374 0.0039, 0.1253 -0.0374 0.0079, 0.1179 -0.0451 0.0039, 0.1179 -0.0451 0.0079, 0.1164 -0.0461 0.0039, 0.11 -0.0502 0.0039, 0.0941 -0.0541 0.0039, 0.0844 0.0461 0.0079, 0.0844 0.0461 0.0039, 0.0943 0.0453 0.0079, 0.0917 0.0455 0.0039, 0.0943 0.0453 0.0039, 0.1052 0.0421 0.0039, 0.1052 0.0421 0.0079, 0.1146 0.0367 0.0039, 0.1146 0.0367 0.0079, 0.1164 0.0349 0.0039, 0.1235 0.0282 0.0079, 0.1235 0.0282 0.0039, 0.1292 0.019 0.0039, 0.1292 0.019 0.0079, 0.133 0.0078 0.0039, 0.133 0.0078 0.0079, 0.0757 0.0455 0.0039, 0.0726 0.0453 0.0079, 0.0726 0.0453 0.0039, 0.0612 0.0422 0.0079, 0.0612 0.0422 0.0039, 0.0612 0.029 0.0079, 0.0612 0.029 0.0039, 0.0843 0.0353 0.0079, 0.0843 0.0353 0.0039, 0.0723 0.0337 0.0039, 0.0723 0.0337 0.0079, 0.1212 -0.0054 0.0079, 0.1212 -0.0054 0.0039, 0.1208 0.0023 0.0039, 0.1208 0.0023 0.0079, 0.1181 0.0128 0.0039, 0.1181 0.0128 0.0079, 0.1164 0.016 0.0039, 0.1141 0.0204 0.0079, 0.1141 0.0204 0.0039, 0.1081 0.027 0.0039, 0.1081 0.027 0.0079, 0.1013 0.0315 0.0039, 0.1013 0.0315 0.0079, 0.094 0.0342 0.0039, 0.094 0.0342 0.0079, 0.0865 -0.0439 0.0079, 0.0865 -0.0439 0.0039, 0.0957 -0.0429 0.0039, 0.0957 -0.0429 0.0079, 0.1028 -0.0403 0.0039, 0.1028 -0.0403 0.0079, 0.1089 -0.0362 0.0039, 0.1089 -0.0362 0.0079, 0.1135 -0.0313 0.0039, 0.1135 -0.0313 0.0079, 0.1164 -0.0264 0.0039, 0.1176 -0.0245 0.0079, 0.1176 -0.0245 0.0039, 0.1202 -0.016 0.0039, 0.1202 -0.016 0.0079, 0.063 -0.0386 0.0039, 0.063 -0.0386 0.0079, 0.0734 -0.0425 0.0039, 0.0734 -0.0425 0.0079, 0.1428 -0.0427 0.0079, 0.1428 -0.0535 0.0079, 0.1428 -0.0427 0.0039, 0.1428 -0.0535 0.0039, 0.1932 -0.0535 0.0079, 0.1932 -0.0535 0.0039, 0.1932 0.0449 0.0079, 0.1932 0.0449 0.0039, 0.18 0.0449 0.0079, 0.18 0.0449 0.0039, 0.18 -0.0427 0.0079, 0.18 -0.0427 0.0039
            ]
        }
        coordIndex [
            0,1,2,-1,2,1,3,-1,1,4,3,-1,3,4,5,-1,4,6,5,-1,5,6,7,-1,6,8,7,-1,7,8,9,-1,8,10,9,-1,9,10,11,-1,10,12,11,-1,11,12,13,-1,12,14,13,-1,13,14,15,-1,14,0,15,-1,15,0,2,-1,16,8,17,-1,17,8,6,-1,18,14,16,-1,16,14,12,-1,16,12,8,-1,8,12,10,-1,18,19,14,-1,14,19,20,-1,14,20,0,-1,0,20,21,-1,0,21,22,-1,22,23,0,-1,0,23,17,-1,0,17,1,-1,1,17,6,-1,1,6,4,-1,16,17,24,-1,24,17,25,-1,18,16,26,-1,26,16,24,-1,18,26,27,-1,18,27,19,-1,19,27,28,-1,19,28,20,-1,21,20,29,-1,29,20,28,-1,21,29,30,-1,21,30,22,-1,22,30,31,-1,22,31,23,-1,17,23,25,-1,25,23,31,-1,32,33,34,-1,34,33,35,-1,33,36,35,-1,35,36,37,-1,36,38,37,-1,37,38,39,-1,40,41,42,-1,40,42,43,-1,43,42,44,-1,43,44,45,-1,45,44,46,-1,45,46,47,-1,47,46,48,-1,47,48,49,-1,49,48,50,-1,49,50,51,-1,51,50,52,-1,51,52,53,-1,53,52,54,-1,53,54,55,-1,55,54,39,-1,55,39,38,-1,32,34,56,-1,32,56,57,-1,57,56,58,-1,57,58,59,-1,59,58,60,-1,59,60,61,-1,61,60,62,-1,61,62,63,-1,63,62,64,-1,63,64,65,-1,65,64,66,-1,65,66,67,-1,67,66,41,-1,67,41,40,-1,45,47,68,-1,68,47,49,-1,68,49,69,-1,69,49,51,-1,69,51,70,-1,70,51,53,-1,70,53,71,-1,71,53,55,-1,71,55,72,-1,72,55,38,-1,72,38,73,-1,73,38,36,-1,73,36,74,-1,74,36,33,-1,74,33,75,-1,75,33,32,-1,75,32,76,-1,76,32,57,-1,76,57,77,-1,77,57,59,-1,77,59,78,-1,78,59,61,-1,78,61,79,-1,79,61,63,-1,79,63,80,-1,80,63,65,-1,80,65,81,-1,81,65,67,-1,81,67,82,-1,82,67,40,-1,82,40,83,-1,83,40,43,-1,83,43,84,-1,84,43,45,-1,84,45,68,-1,72,73,85,-1,85,73,86,-1,72,85,87,-1,72,87,71,-1,71,87,88,-1,71,88,70,-1,70,88,89,-1,70,89,69,-1,69,89,90,-1,69,90,68,-1,68,90,91,-1,68,91,84,-1,84,91,92,-1,84,92,83,-1,83,92,93,-1,83,93,82,-1,82,93,94,-1,82,94,81,-1,81,94,95,-1,81,95,80,-1,80,95,96,-1,80,96,79,-1,79,96,97,-1,79,97,78,-1,78,97,98,-1,78,98,77,-1,77,98,99,-1,77,99,76,-1,76,99,100,-1,76,100,75,-1,74,75,101,-1,101,75,100,-1,73,74,86,-1,86,74,101,-1,102,103,104,-1,104,103,105,-1,103,106,105,-1,105,106,107,-1,106,108,107,-1,107,108,109,-1,108,110,109,-1,109,110,111,-1,110,112,111,-1,111,112,113,-1,112,114,113,-1,113,114,115,-1,114,116,115,-1,115,116,117,-1,116,118,117,-1,117,118,119,-1,118,120,119,-1,119,120,121,-1,120,122,121,-1,121,122,123,-1,122,124,123,-1,123,124,125,-1,124,102,125,-1,125,102,104,-1,106,103,102,-1,102,124,106,-1,106,124,122,-1,106,122,108,-1,112,110,114,-1,114,110,108,-1,114,108,116,-1,116,108,122,-1,116,122,118,-1,118,122,120,-1,126,127,128,-1,128,127,129,-1,129,127,130,-1,131,132,133,-1,131,133,134,-1,134,133,135,-1,134,135,130,-1,130,135,136,-1,130,136,129,-1,137,138,139,-1,140,141,142,-1,140,142,143,-1,143,142,144,-1,143,144,145,-1,145,144,146,-1,145,146,147,-1,147,146,148,-1,147,148,149,-1,149,148,150,-1,149,150,139,-1,139,150,151,-1,139,151,137,-1,138,137,131,-1,131,137,152,-1,131,152,132,-1,153,154,155,-1,155,154,156,-1,156,157,155,-1,155,157,158,-1,155,158,159,-1,159,158,160,-1,159,160,161,-1,161,160,162,-1,161,162,163,-1,162,164,163,-1,163,164,165,-1,163,165,166,-1,166,165,167,-1,166,167,168,-1,168,167,141,-1,168,141,140,-1,154,153,169,-1,169,153,170,-1,169,170,171,-1,171,170,172,-1,171,172,173,-1,172,174,173,-1,173,174,175,-1,176,177,178,-1,176,178,179,-1,179,178,175,-1,179,175,174,-1,180,181,182,-1,180,182,183,-1,183,182,184,-1,183,184,185,-1,185,184,186,-1,185,186,187,-1,186,188,187,-1,187,188,189,-1,187,189,190,-1,190,189,191,-1,190,191,192,-1,192,191,193,-1,192,193,194,-1,194,193,177,-1,194,177,176,-1,195,196,197,-1,195,197,198,-1,198,197,199,-1,198,199,200,-1,200,199,201,-1,200,201,202,-1,202,201,203,-1,202,203,204,-1,204,203,205,-1,204,205,206,-1,205,207,206,-1,206,207,208,-1,206,208,209,-1,209,208,181,-1,209,181,180,-1,126,128,210,-1,126,210,211,-1,211,210,212,-1,211,212,213,-1,213,212,196,-1,213,196,195,-1,198,131,195,-1,195,131,134,-1,195,134,213,-1,213,134,130,-1,213,130,211,-1,211,130,127,-1,211,127,126,-1,174,172,179,-1,179,172,170,-1,179,170,176,-1,176,170,153,-1,176,153,194,-1,194,153,155,-1,194,155,192,-1,192,155,159,-1,192,159,190,-1,190,159,161,-1,190,161,187,-1,187,161,163,-1,187,163,185,-1,185,163,166,-1,185,166,183,-1,183,166,168,-1,183,168,180,-1,180,168,140,-1,180,140,209,-1,209,140,143,-1,209,143,206,-1,206,143,145,-1,206,145,204,-1,204,145,147,-1,204,147,202,-1,202,147,149,-1,202,149,200,-1,200,149,139,-1,200,139,198,-1,198,139,138,-1,198,138,131,-1,214,215,216,-1,216,215,217,-1,215,218,217,-1,217,218,219,-1,218,220,219,-1,219,220,221,-1,220,222,221,-1,221,222,223,-1,222,224,223,-1,223,224,225,-1,224,214,225,-1,225,214,216,-1,222,220,224,-1,224,220,218,-1,224,218,214,-1,214,218,215,-1,
        ]
    }
}
Shape{
    appearance Appearance {
        material  Material 	{
            diffuseColor 0.2196078431372549 0.6862745098039216 0.0
            specularColor 0.10980392156862745 0.3411764705882353 0.0
            ambientIntensity 0.4685
            transparency 0.0
            shininess 0.5
        }
    }
    geometry IndexedFaceSet {
        ccw TRUE
        solid FALSE
        coord DEF co Coordinate {
            point [
                -0.1435 -0.0151 0.0039, -0.1765 -0.0151 0.0039, -0.1582 0.026 0.0039, -0.1616 0.026 0.0039, -0.1592 0.0294 0.0039, -0.1608 0.0294 0.0039, -0.1598 0.0329 0.0039, -0.1601 0.0329 0.0039, -0.0432 0.0341 0.0039, -0.0432 -0.0427 0.0039, -0.0577 0.0341 0.0039, -0.0572 -0.0427 0.0039, -0.0676 -0.0418 0.0039, -0.096 -0.0034 0.0039, -0.0952 0.0064 0.0039, -0.0929 0.0142 0.0039, -0.0694 0.0329 0.0039, -0.0759 -0.0392 0.0039, -0.0826 -0.0352 0.0039, -0.0881 -0.0297 0.0039, -0.0922 -0.023 0.0039, -0.0951 -0.0137 0.0039, -0.0895 0.0203 0.0039, -0.0847 0.0254 0.0039, -0.0775 0.03 0.0039
            ]
        }
        coordIndex [
            0,1,2,-1,2,1,3,-1,2,3,4,-1,4,3,5,-1,4,5,6,-1,6,5,7,-1,8,9,10,-1,10,9,11,-1,10,11,12,-1,13,14,10,-1,10,14,15,-1,10,15,16,-1,12,17,10,-1,10,17,18,-1,10,18,19,-1,19,20,10,-1,10,20,21,-1,10,21,13,-1,22,23,15,-1,15,23,24,-1,15,24,16,-1,
        ]
    }
}